<?xml version="1.0" encoding="UTF-8" standalone="no"?>
<!-- Created with Inkscape (http://www.inkscape.org/) -->

<svg
   xmlns:dc="http://purl.org/dc/elements/1.1/"
   xmlns:cc="http://creativecommons.org/ns#"
   xmlns:rdf="http://www.w3.org/1999/02/22-rdf-syntax-ns#"
   xmlns:svg="http://www.w3.org/2000/svg"
   xmlns="http://www.w3.org/2000/svg"
   xmlns:xlink="http://www.w3.org/1999/xlink"
   xmlns:sodipodi="http://sodipodi.sourceforge.net/DTD/sodipodi-0.dtd"
   xmlns:inkscape="http://www.inkscape.org/namespaces/inkscape"
   width="744.09448819"
   height="1052.3622047"
   id="svg2"
   version="1.1"
   inkscape:version="0.48.3.1 r9886"
   sodipodi:docname="икт_робот.svg">
  <sodipodi:namedview
     id="base"
     pagecolor="#ffffff"
     bordercolor="#666666"
     borderopacity="1.0"
     inkscape:pageopacity="0.0"
     inkscape:pageshadow="2"
     inkscape:zoom="0.98994949"
     inkscape:cx="339.29331"
     inkscape:cy="701.82746"
     inkscape:document-units="px"
     inkscape:current-layer="layer1"
     showgrid="false"
     inkscape:window-width="1920"
     inkscape:window-height="1025"
     inkscape:window-x="-3"
     inkscape:window-y="-3"
     inkscape:window-maximized="1" />
  <defs
     id="defs4">
    <linearGradient
       id="linearGradient3919"
       inkscape:collect="always">
      <stop
         id="stop3921"
         offset="0"
         style="stop-color:#66ff00;stop-opacity:1;" />
      <stop
         id="stop3923"
         offset="1"
         style="stop-color:#338000;stop-opacity:1" />
    </linearGradient>
    <linearGradient
       id="linearGradient3911"
       inkscape:collect="always">
      <stop
         id="stop3913"
         offset="0"
         style="stop-color:#66ff00;stop-opacity:1;" />
      <stop
         id="stop3915"
         offset="1"
         style="stop-color:#225500;stop-opacity:1" />
    </linearGradient>
    <clipPath
       id="clipPath3033"
       clipPathUnits="userSpaceOnUse">
      <path
         id="path3035"
         d="m 568.50181,352.06317 c -47.08818,1.19299 -84.90625,39.74932 -84.90625,87.125 0,48.12768 38.99732,87.15625 87.125,87.15625 48.12767,0 87.15625,-39.02857 87.15625,-87.15625 0,-48.12767 -39.02858,-87.125 -87.15625,-87.125 -0.752,0 -1.47132,-0.0189 -2.21875,0 z m 2.21875,65.78125 c 11.79423,0 21.375,9.54952 21.375,21.34375 0,11.79423 -9.58077,21.34375 -21.375,21.34375 -11.79423,0 -21.34375,-9.54952 -21.34375,-21.34375 0,-11.79423 9.54952,-21.34375 21.34375,-21.34375 z"
         style="fill:#4d4d4d;fill-opacity:1;fill-rule:evenodd;stroke:#000000"
         inkscape:connector-curvature="0" />
    </clipPath>
    <radialGradient
       gradientTransform="translate(2.8767485e-5,0)"
       gradientUnits="userSpaceOnUse"
       r="28.029196"
       fy="273.02951"
       fx="140.91629"
       cy="273.02951"
       cx="140.91629"
       id="radialGradient3917"
       xlink:href="#linearGradient3911"
       inkscape:collect="always" />
    <radialGradient
       gradientTransform="translate(2.9798579e-5,0)"
       gradientUnits="userSpaceOnUse"
       r="28.029196"
       fy="272.01935"
       fx="145.96706"
       cy="272.01935"
       cx="145.96706"
       id="radialGradient3925"
       xlink:href="#linearGradient3919"
       inkscape:collect="always" />
    <clipPath
       clipPathUnits="userSpaceOnUse"
       id="clipPath4124">
      <g
         id="g4126"
         transform="matrix(0.83737195,0,0,0.83737195,-153.54341,571.52907)"
         inkscape:label="Gear32">
        <path
           style="fill:#66ff00;stroke:#000000;stroke-width:0.83737195"
           d="m 603.5,394.78125 -2.21875,5.40625 -0.9375,5.21875 0,0.1875 -5.4375,0.53125 0,-0.1875 -1.9375,-4.90625 -3.21875,-4.875 -3.90625,0.75 -1.09375,5.75 0.0937,5.28125 0.0312,0.1875 -5.21875,1.59375 -0.0625,-0.1875 -2.875,-4.4375 -4.09375,-4.15625 -3.65625,1.5 0.0312,5.84375 1.125,5.1875 0.0937,0.15625 -4.84375,2.5625 -0.0937,-0.15625 -3.65625,-3.8125 -4.84375,-3.25 -3.28125,2.1875 1.15625,5.71875 2.125,4.84375 0.0937,0.15625 -4.21875,3.46875 -0.125,-0.125 -4.34375,-3.03125 -5.375,-2.25 -2.8125,2.78125 2.28125,5.40625 3,4.34375 0.15625,0.125 -3.46875,4.21875 -0.15625,-0.125 -4.84375,-2.09375 -5.71875,-1.1875 -2.21875,3.28125 3.28125,4.84375 3.8125,3.6875 0.15625,0.0937 -2.59375,4.8125 -0.15625,-0.0937 -5.15625,-1.09375 -5.84375,-0.0625 -1.53125,3.6875 4.15625,4.09375 4.4375,2.875 0.1875,0.0312 -1.59375,5.25 -0.15625,-0.0625 -5.3125,-0.0937 -5.71875,1.125 -0.78125,3.875 4.875,3.21875 4.9375,1.9375 0.1875,0.0312 -0.5625,5.4375 -0.1875,-0.0312 -5.1875,0.96875 -5.40625,2.1875 0,3.96875 5.40625,2.1875 5.1875,0.96875 0.1875,-0.0312 0.5625,5.4375 -0.1875,0.0312 -4.9375,1.9375 -4.875,3.21875 L 517,505 l 5.71875,1.125 5.3125,-0.0937 0.15625,-0.0625 1.59375,5.25 -0.1875,0.0312 -4.4375,2.875 -4.15625,4.09375 1.53125,3.6875 5.84375,-0.0625 5.15625,-1.09375 0.15625,-0.0937 2.59375,4.8125 -0.15625,0.0937 -3.8125,3.6875 -3.28125,4.84375 2.21875,3.28125 5.71875,-1.1875 4.84375,-2.09375 0.15625,-0.125 3.46875,4.21875 -0.15625,0.125 -3,4.34375 -2.28125,5.40625 2.8125,2.78125 5.375,-2.25 4.34375,-3.03125 0.125,-0.125 4.21875,3.46875 -0.0937,0.15625 -2.125,4.84375 -1.15625,5.71875 3.28125,2.1875 4.84375,-3.25 3.65625,-3.8125 0.0937,-0.15625 4.84375,2.5625 -0.0937,0.15625 -1.125,5.1875 -0.0312,5.84375 3.65625,1.5 4.09375,-4.15625 2.875,-4.4375 0.0625,-0.1875 5.21875,1.59375 -0.0312,0.1875 -0.0937,5.28125 1.09375,5.75 3.90625,0.75 3.21875,-4.875 1.9375,-4.90625 0,-0.1875 5.4375,0.53125 0,0.1875 0.9375,5.21875 L 603.5,576 l 3.9375,0 2.21875,-5.40625 0.9375,-5.21875 0,-0.1875 5.4375,-0.53125 0,0.1875 1.9375,4.90625 3.21875,4.875 3.90625,-0.75 1.09375,-5.75 -0.0937,-5.28125 -0.0312,-0.1875 5.21875,-1.59375 0.0625,0.1875 2.84375,4.4375 4.125,4.15625 3.65625,-1.5 -0.0312,-5.84375 -1.125,-5.1875 -0.0937,-0.15625 4.84375,-2.5625 0.0937,0.15625 3.65625,3.8125 4.84375,3.25 3.28125,-2.1875 -1.15625,-5.71875 -2.125,-4.84375 -0.0937,-0.15625 4.21875,-3.46875 0.125,0.125 4.34375,3.03125 5.375,2.25 2.8125,-2.78125 -2.28125,-5.40625 -3,-4.34375 -0.15625,-0.125 3.46875,-4.21875 0.15625,0.125 4.84375,2.09375 5.71875,1.1875 2.21875,-3.28125 -3.28125,-4.84375 -3.8125,-3.6875 -0.15625,-0.0937 2.59375,-4.8125 0.15625,0.0937 5.15625,1.09375 5.84375,0.0625 1.53125,-3.6875 -4.15625,-4.09375 -4.46875,-2.875 -0.15625,-0.0312 1.59375,-5.25 0.15625,0.0625 5.3125,0.0937 5.71875,-1.125 0.78125,-3.875 -4.875,-3.21875 -4.9375,-1.9375 -0.1875,-0.0312 0.5625,-5.4375 0.1875,0.0312 5.1875,-0.96875 5.40625,-2.1875 0,-3.96875 -5.40625,-2.1875 -5.1875,-0.96875 -0.1875,0.0312 -0.5625,-5.4375 0.1875,-0.0312 4.9375,-1.9375 4.875,-3.21875 -0.78125,-3.875 -5.71875,-1.125 -5.3125,0.0937 -0.15625,0.0625 -1.59375,-5.25 0.15625,-0.0312 4.46875,-2.875 4.15625,-4.09375 -1.53125,-3.6875 -5.84375,0.0625 -5.15625,1.09375 -0.15625,0.0937 -2.59375,-4.8125 0.15625,-0.0937 3.8125,-3.6875 3.28125,-4.84375 -2.21875,-3.28125 -5.71875,1.1875 -4.84375,2.09375 -0.15625,0.125 -3.46875,-4.21875 0.15625,-0.125 3,-4.34375 2.28125,-5.40625 -2.8125,-2.78125 -5.375,2.25 -4.34375,3.03125 -0.125,0.125 -4.21875,-3.46875 0.0937,-0.15625 2.125,-4.84375 1.15625,-5.71875 -3.28125,-2.1875 -4.84375,3.25 -3.65625,3.8125 -0.0937,0.15625 -4.84375,-2.5625 0.0937,-0.15625 1.125,-5.1875 0.0312,-5.84375 -3.65625,-1.5 -4.125,4.15625 -2.84375,4.4375 -0.0625,0.1875 -5.21875,-1.59375 0.0312,-0.1875 0.0937,-5.28125 -1.09375,-5.75 -3.90625,-0.75 -3.21875,4.875 -1.9375,4.90625 0,0.1875 -5.4375,-0.53125 0,-0.1875 -0.9375,-5.21875 -2.21875,-5.40625 -3.9375,0 z m 1.96875,71.90625 c 10.321,0 18.6875,8.3665 18.6875,18.6875 0,10.32099 -8.3665,18.6875 -18.6875,18.6875 -10.321,0 -18.6875,-8.36651 -18.6875,-18.6875 0,-10.321 8.3665,-18.6875 18.6875,-18.6875 z"
           transform="matrix(1.1942124,0,0,1.1942124,-723.05802,-579.65891)"
           id="path4128"
           inkscape:connector-curvature="0" />
      </g>
    </clipPath>
  </defs>
  <metadata
     id="metadata7">
    <rdf:RDF>
      <cc:Work
         rdf:about="">
        <dc:format>image/svg+xml</dc:format>
        <dc:type
           rdf:resource="http://purl.org/dc/dcmitype/StillImage" />
        <dc:title></dc:title>
      </cc:Work>
    </rdf:RDF>
  </metadata>
  <g
     id="layer1"
     inkscape:groupmode="layer"
     inkscape:label="Layer 1">
    <path
       sodipodi:nodetypes="cc"
       inkscape:connector-curvature="0"
       id="path3043"
       d="m 351.53309,462.4331 c 22.11796,-24.64037 87.04859,9.97663 91.92388,40.4061"
       style="fill:none;stroke:#000000;stroke-width:2;stroke-linecap:butt;stroke-linejoin:miter;stroke-miterlimit:4;stroke-opacity:1;stroke-dasharray:none" />
    <path
       sodipodi:nodetypes="cc"
       inkscape:connector-curvature="0"
       id="path3037"
       d="M 272.74119,556.07413 C 288.44256,601.9474 255.68378,661.8521 252.53814,698.80879"
       style="fill:none;stroke:#000000;stroke-width:2.10133958;stroke-linecap:butt;stroke-linejoin:miter;stroke-miterlimit:4;stroke-opacity:1;stroke-dasharray:none" />
    <path
       sodipodi:nodetypes="cc"
       inkscape:connector-curvature="0"
       id="path3039"
       d="m 324.25897,553.63812 c 63.11244,25.47356 15.21557,112.86701 30.30457,144.16052"
       style="fill:none;stroke:#000000;stroke-width:2.07173324;stroke-linecap:butt;stroke-linejoin:miter;stroke-miterlimit:4;stroke-opacity:1;stroke-dasharray:none" />
    <path
       sodipodi:nodetypes="cc"
       inkscape:connector-curvature="0"
       id="path3041"
       d="m 216.17265,445.2605 c -39.09255,5.55969 -45.4296,31.17749 -73.74114,84.85281"
       style="fill:none;stroke:#000000;stroke-width:2;stroke-linecap:butt;stroke-linejoin:miter;stroke-miterlimit:4;stroke-opacity:1;stroke-dasharray:none" />
    <path
       sodipodi:nodetypes="cc"
       inkscape:connector-curvature="0"
       id="path3045"
       d="m 310.11684,395.76303 12.12183,-67.68022"
       style="fill:none;stroke:#000000;stroke-width:2;stroke-linecap:butt;stroke-linejoin:miter;stroke-opacity:1;stroke-miterlimit:4;stroke-dasharray:none" />
    <path
       sodipodi:nodetypes="cc"
       inkscape:connector-curvature="0"
       id="path3047"
       d="m 272.74119,399.80364 -9.09138,-68.69038"
       style="fill:none;stroke:#000000;stroke-width:2;stroke-linecap:butt;stroke-linejoin:miter;stroke-opacity:1;stroke-miterlimit:4;stroke-dasharray:none" />
    <path
       transform="translate(125.25892,26.263966)"
       d="m 163.64472,278.08026 a 27.779196,27.779196 0 1 1 -55.55839,0 27.779196,27.779196 0 1 1 55.55839,0 z"
       sodipodi:ry="27.779196"
       sodipodi:rx="27.779196"
       sodipodi:cy="278.08026"
       sodipodi:cx="135.86552"
       id="path3049"
       style="fill:url(#radialGradient3917);fill-opacity:1;fill-rule:evenodd;stroke:#000000;stroke-width:0.5;stroke-linecap:round;stroke-linejoin:round;stroke-miterlimit:4;stroke-opacity:1;stroke-dasharray:none;stroke-dashoffset:0"
       sodipodi:type="arc" />
    <path
       transform="translate(192.43405,24.748732)"
       d="m 163.64472,278.08026 a 27.779196,27.779196 0 1 1 -55.55839,0 27.779196,27.779196 0 1 1 55.55839,0 z"
       sodipodi:ry="27.779196"
       sodipodi:rx="27.779196"
       sodipodi:cy="278.08026"
       sodipodi:cx="135.86552"
       id="path3049-3"
       style="fill:url(#radialGradient3925);fill-opacity:1;fill-rule:evenodd;stroke:#000000;stroke-width:0.5;stroke-linecap:round;stroke-linejoin:round;stroke-miterlimit:4;stroke-opacity:1;stroke-dasharray:none;stroke-dashoffset:0"
       sodipodi:type="arc" />
    <path
       transform="matrix(0.49544983,0,0,0.49544983,577.66784,432.74459)"
       d="m 163.64472,278.08026 a 27.779196,27.779196 0 1 1 -55.55839,0 27.779196,27.779196 0 1 1 55.55839,0 z"
       sodipodi:ry="27.779196"
       sodipodi:rx="27.779196"
       sodipodi:cy="278.08026"
       sodipodi:cx="135.86552"
       id="path3049-9"
       style="fill:#44aa00;fill-opacity:1;fill-rule:evenodd;stroke:#000000;stroke-width:0.5;stroke-linecap:round;stroke-linejoin:round;stroke-miterlimit:4;stroke-opacity:1;stroke-dasharray:none;stroke-dashoffset:0"
       sodipodi:type="arc" />
    <path
       transform="matrix(0.49544983,0,0,0.49544983,523.1196,450.67481)"
       d="m 163.64472,278.08026 a 27.779196,27.779196 0 1 1 -55.55839,0 27.779196,27.779196 0 1 1 55.55839,0 z"
       sodipodi:ry="27.779196"
       sodipodi:rx="27.779196"
       sodipodi:cy="278.08026"
       sodipodi:cx="135.86552"
       id="path3049-9-8"
       style="fill:#44aa00;fill-opacity:1;fill-rule:evenodd;stroke:#000000;stroke-width:0.5;stroke-linecap:round;stroke-linejoin:round;stroke-miterlimit:4;stroke-opacity:1;stroke-dasharray:none;stroke-dashoffset:0"
       sodipodi:type="arc" />
    <path
       transform="matrix(0.49544983,0,0,0.49544983,77.137264,403.45017)"
       d="m 163.64472,278.08026 a 27.779196,27.779196 0 1 1 -55.55839,0 27.779196,27.779196 0 1 1 55.55839,0 z"
       sodipodi:ry="27.779196"
       sodipodi:rx="27.779196"
       sodipodi:cy="278.08026"
       sodipodi:cx="135.86552"
       id="path3049-9-0"
       style="fill:#44aa00;fill-opacity:1;fill-rule:evenodd;stroke:#000000;stroke-width:0.5;stroke-linecap:round;stroke-linejoin:round;stroke-miterlimit:4;stroke-opacity:1;stroke-dasharray:none;stroke-dashoffset:0"
       sodipodi:type="arc" />
    <path
       transform="matrix(0.49544983,0,0,0.49544983,375.13226,376.17605)"
       d="m 163.64472,278.08026 a 27.779196,27.779196 0 1 1 -55.55839,0 27.779196,27.779196 0 1 1 55.55839,0 z"
       sodipodi:ry="27.779196"
       sodipodi:rx="27.779196"
       sodipodi:cy="278.08026"
       sodipodi:cx="135.86552"
       id="path3049-9-4"
       style="fill:#44aa00;fill-opacity:1;fill-rule:evenodd;stroke:#000000;stroke-width:0.5;stroke-linecap:round;stroke-linejoin:round;stroke-miterlimit:4;stroke-opacity:1;stroke-dasharray:none;stroke-dashoffset:0"
       sodipodi:type="arc" />
    <text
       sodipodi:linespacing="125%"
       id="text3119"
       y="49.28072"
       x="19.192907"
       style="font-size:40px;font-style:normal;font-weight:normal;line-height:125%;letter-spacing:0px;word-spacing:0px;fill:#000000;fill-opacity:1;stroke:none;font-family:Sans"
       xml:space="preserve"><tspan
         y="49.28072"
         x="19.192907"
         id="tspan3121"
         sodipodi:role="line">ИКТ-ПРОЕКТ</tspan></text>
    <path
       transform="translate(135.36044,132.32998)"
       d="m 144.45181,169.99393 a 9.5964489,9.5964489 0 1 1 -19.1929,0 9.5964489,9.5964489 0 1 1 19.1929,0 z"
       sodipodi:ry="9.5964489"
       sodipodi:rx="9.5964489"
       sodipodi:cy="169.99393"
       sodipodi:cx="134.85536"
       id="path3123"
       style="fill:#112b00;fill-opacity:1;fill-rule:evenodd;stroke:#338000;stroke-width:0.5;stroke-linecap:round;stroke-linejoin:round;stroke-miterlimit:4;stroke-opacity:1;stroke-dasharray:none;stroke-dashoffset:0"
       sodipodi:type="arc" />
    <path
       transform="translate(207.58635,128.79446)"
       d="m 144.45181,169.99393 a 9.5964489,9.5964489 0 1 1 -19.1929,0 9.5964489,9.5964489 0 1 1 19.1929,0 z"
       sodipodi:ry="9.5964489"
       sodipodi:rx="9.5964489"
       sodipodi:cy="169.99393"
       sodipodi:cx="134.85536"
       id="path3123-9"
       style="fill:#112b00;fill-opacity:1;fill-rule:evenodd;stroke:#338000;stroke-width:0.5;stroke-linecap:round;stroke-linejoin:round;stroke-miterlimit:4;stroke-opacity:1;stroke-dasharray:none;stroke-dashoffset:0"
       sodipodi:type="arc" />
    <path
       inkscape:connector-curvature="0"
       id="path3049-9-8-7"
       d="m 355.82628,691.11834 c -5.56863,0 -10.3644,3.30514 -12.53125,8.0625 -1.13633,-0.41428 -2.34536,-0.65625 -3.625,-0.65625 -5.87334,0 -10.65625,4.75166 -10.65625,10.625 0,5.87334 4.78291,10.65625 10.65625,10.65625 3.26358,0 6.17421,-1.46716 8.125,-3.78125 2.26275,1.63286 5.02769,2.59375 8.03125,2.59375 2.61291,0 5.04405,-0.73558 7.125,-2 1.68585,1.12295 3.69747,1.78125 5.875,1.78125 5.87334,0 10.625,-4.75166 10.625,-10.625 0,-5.87334 -4.75166,-10.625 -10.625,-10.625 -0.52371,0 -1.02781,0.0519 -1.53125,0.125 -2.46484,-3.71381 -6.67743,-6.15625 -11.46875,-6.15625 z"
       style="fill:#44aa00;fill-opacity:1;fill-rule:evenodd;stroke:#000000;stroke-width:0.24772492;stroke-linecap:round;stroke-linejoin:round;stroke-miterlimit:4;stroke-opacity:1;stroke-dasharray:none;stroke-dashoffset:0" />
    <path
       inkscape:connector-curvature="0"
       id="path3049-9-8-7-2"
       d="m 253.37427,692.7988 c -5.56863,0 -10.3644,3.30514 -12.53125,8.0625 -1.13633,-0.41428 -2.34536,-0.65625 -3.625,-0.65625 -5.87334,0 -10.65625,4.75166 -10.65625,10.625 0,5.87334 4.78291,10.65625 10.65625,10.65625 3.26358,0 6.17421,-1.46716 8.125,-3.78125 2.26275,1.63286 5.02769,2.59375 8.03125,2.59375 2.61291,0 5.04405,-0.73558 7.125,-2 1.68585,1.12295 3.69747,1.78125 5.875,1.78125 5.87334,0 10.625,-4.75166 10.625,-10.625 0,-5.87334 -4.75166,-10.625 -10.625,-10.625 -0.52371,0 -1.02781,0.0519 -1.53125,0.125 -2.46484,-3.71381 -6.67743,-6.15625 -11.46875,-6.15625 z"
       style="fill:#44aa00;fill-opacity:1;fill-rule:evenodd;stroke:#000000;stroke-width:0.24772492;stroke-linecap:round;stroke-linejoin:round;stroke-miterlimit:4;stroke-opacity:1;stroke-dasharray:none;stroke-dashoffset:0" />
    <g
       id="g4177"
       transform="translate(-421.23361,199.00005)">
      <path
         inkscape:connector-curvature="0"
         style="fill:#66ff00;fill-opacity:1;fill-rule:evenodd;stroke:#112b00;stroke-width:2;stroke-miterlimit:4;stroke-dasharray:none"
         d="m 713.12971,197.4476 c -47.08818,1.19299 -84.90625,39.74932 -84.90625,87.125 0,48.12768 38.99732,87.15625 87.125,87.15625 48.12767,0 87.15625,-39.02857 87.15625,-87.15625 0,-48.12767 -39.02858,-87.125 -87.15625,-87.125 -0.752,0 -1.47132,-0.0189 -2.21875,0 z m 2.21875,65.78125 c 11.79423,0 21.375,9.54952 21.375,21.34375 0,11.79423 -9.58077,21.34375 -21.375,21.34375 -11.79423,0 -21.34375,-9.54952 -21.34375,-21.34375 0,-11.79423 9.54952,-21.34375 21.34375,-21.34375 z"
         id="path2985" />
      <path
         inkscape:connector-curvature="0"
         d="m 483.09556,351.55475 0,175.28967 m 3,-175.28967 0,175.28967 m 3,-175.28967 0,175.28967 m 3,-175.28967 0,175.28967 m 3,-175.28967 0,175.28967 m 3,-175.28967 0,175.28967 m 3,-175.28967 0,175.28967 m 3,-175.28967 0,175.28967 m 3,-175.28967 0,175.28967 m 3,-175.28967 0,175.28967 m 3,-175.28967 0,175.28967 m 3,-175.28967 0,175.28967 m 3,-175.28967 0,175.28967 m 3,-175.28967 0,175.28967 m 3,-175.28967 0,175.28967 m 3,-175.28967 0,175.28967 m 3,-175.28967 0,175.28967 m 3,-175.28967 0,175.28967 m 3,-175.28967 0,175.28967 m 3,-175.28967 0,175.28967 m 3,-175.28967 0,175.28967 m 3,-175.28967 0,175.28967 m 3,-175.28967 0,175.28967 m 3,-175.28967 0,175.28967 m 3,-175.28967 0,175.28967 m 3,-175.28967 0,175.28967 m 3,-175.28967 0,175.28967 m 3,-175.28967 0,175.28967 m 3,-175.28967 0,175.28967 m 3,-175.28967 0,175.28967 m 3,-175.28967 0,175.28967 m 3,-175.28967 0,175.28967 m 3,-175.28967 0,175.28967 m 3,-175.28967 0,175.28967 m 3,-175.28967 0,175.28967 m 3,-175.28967 0,175.28967 m 3,-175.28967 0,175.28967 m 3,-175.28967 0,175.28967 m 3,-175.28967 0,175.28967 m 3,-175.28967 0,175.28967 m 3,-175.28967 0,175.28967 m 3,-175.28967 0,175.28967 m 3,-175.28967 0,175.28967 m 3,-175.28967 0,175.28967 m 3,-175.28967 0,175.28967 m 3,-175.28967 0,175.28967 m 3,-175.28967 0,175.28967 m 3,-175.28967 0,175.28967 m 3,-175.28967 0,175.28967 m 3,-175.28967 0,175.28967 m 3,-175.28967 0,175.28967 m 3,-175.28967 0,175.28967 m 3,-175.28967 0,175.28967 m 3,-175.28967 0,175.28967 m 3,-175.28967 0,175.28967 m 3,-175.28967 0,175.28967 m 3,-175.28967 0,175.28967 m 3,-175.28967 0,175.28967 m 3,-175.28967 0,175.28967 m -174,-175.28967 175.28125,0"
         style="fill:none;stroke:#338000;stroke-width:1pt;stroke-linecap:butt;stroke-linejoin:miter;stroke-opacity:1"
         id="path3010-4"
         clip-path="url(#clipPath3033)"
         transform="matrix(-0.53193874,-0.84678284,0.84678284,-0.53193874,645.86786,1002.5734)" />
    </g>
    <g
       id="g4130"
       transform="translate(265.67012,12.121831)">
      <g
         style="stroke:#225500;stroke-width:2.38842487;stroke-miterlimit:4;stroke-dasharray:none"
         inkscape:label="Gear32"
         transform="matrix(0.83737195,0,0,0.83737195,601.42789,490.44088)"
         id="g4035">
        <path
           inkscape:connector-curvature="0"
           id="path4037"
           transform="matrix(1.1942124,0,0,1.1942124,-723.05802,-579.65891)"
           d="m 603.5,394.78125 -2.21875,5.40625 -0.9375,5.21875 0,0.1875 -5.4375,0.53125 0,-0.1875 -1.9375,-4.90625 -3.21875,-4.875 -3.90625,0.75 -1.09375,5.75 0.0937,5.28125 0.0312,0.1875 -5.21875,1.59375 -0.0625,-0.1875 -2.875,-4.4375 -4.09375,-4.15625 -3.65625,1.5 0.0312,5.84375 1.125,5.1875 0.0937,0.15625 -4.84375,2.5625 -0.0937,-0.15625 -3.65625,-3.8125 -4.84375,-3.25 -3.28125,2.1875 1.15625,5.71875 2.125,4.84375 0.0937,0.15625 -4.21875,3.46875 -0.125,-0.125 -4.34375,-3.03125 -5.375,-2.25 -2.8125,2.78125 2.28125,5.40625 3,4.34375 0.15625,0.125 -3.46875,4.21875 -0.15625,-0.125 -4.84375,-2.09375 -5.71875,-1.1875 -2.21875,3.28125 3.28125,4.84375 3.8125,3.6875 0.15625,0.0937 -2.59375,4.8125 -0.15625,-0.0937 -5.15625,-1.09375 -5.84375,-0.0625 -1.53125,3.6875 4.15625,4.09375 4.4375,2.875 0.1875,0.0312 -1.59375,5.25 -0.15625,-0.0625 -5.3125,-0.0937 -5.71875,1.125 -0.78125,3.875 4.875,3.21875 4.9375,1.9375 0.1875,0.0312 -0.5625,5.4375 -0.1875,-0.0312 -5.1875,0.96875 -5.40625,2.1875 0,3.96875 5.40625,2.1875 5.1875,0.96875 0.1875,-0.0312 0.5625,5.4375 -0.1875,0.0312 -4.9375,1.9375 -4.875,3.21875 L 517,505 l 5.71875,1.125 5.3125,-0.0937 0.15625,-0.0625 1.59375,5.25 -0.1875,0.0312 -4.4375,2.875 -4.15625,4.09375 1.53125,3.6875 5.84375,-0.0625 5.15625,-1.09375 0.15625,-0.0937 2.59375,4.8125 -0.15625,0.0937 -3.8125,3.6875 -3.28125,4.84375 2.21875,3.28125 5.71875,-1.1875 4.84375,-2.09375 0.15625,-0.125 3.46875,4.21875 -0.15625,0.125 -3,4.34375 -2.28125,5.40625 2.8125,2.78125 5.375,-2.25 4.34375,-3.03125 0.125,-0.125 4.21875,3.46875 -0.0937,0.15625 -2.125,4.84375 -1.15625,5.71875 3.28125,2.1875 4.84375,-3.25 3.65625,-3.8125 0.0937,-0.15625 4.84375,2.5625 -0.0937,0.15625 -1.125,5.1875 -0.0312,5.84375 3.65625,1.5 4.09375,-4.15625 2.875,-4.4375 0.0625,-0.1875 5.21875,1.59375 -0.0312,0.1875 -0.0937,5.28125 1.09375,5.75 3.90625,0.75 3.21875,-4.875 1.9375,-4.90625 0,-0.1875 5.4375,0.53125 0,0.1875 0.9375,5.21875 L 603.5,576 l 3.9375,0 2.21875,-5.40625 0.9375,-5.21875 0,-0.1875 5.4375,-0.53125 0,0.1875 1.9375,4.90625 3.21875,4.875 3.90625,-0.75 1.09375,-5.75 -0.0937,-5.28125 -0.0312,-0.1875 5.21875,-1.59375 0.0625,0.1875 2.84375,4.4375 4.125,4.15625 3.65625,-1.5 -0.0312,-5.84375 -1.125,-5.1875 -0.0937,-0.15625 4.84375,-2.5625 0.0937,0.15625 3.65625,3.8125 4.84375,3.25 3.28125,-2.1875 -1.15625,-5.71875 -2.125,-4.84375 -0.0937,-0.15625 4.21875,-3.46875 0.125,0.125 4.34375,3.03125 5.375,2.25 2.8125,-2.78125 -2.28125,-5.40625 -3,-4.34375 -0.15625,-0.125 3.46875,-4.21875 0.15625,0.125 4.84375,2.09375 5.71875,1.1875 2.21875,-3.28125 -3.28125,-4.84375 -3.8125,-3.6875 -0.15625,-0.0937 2.59375,-4.8125 0.15625,0.0937 5.15625,1.09375 5.84375,0.0625 1.53125,-3.6875 -4.15625,-4.09375 -4.46875,-2.875 -0.15625,-0.0312 1.59375,-5.25 0.15625,0.0625 5.3125,0.0937 5.71875,-1.125 0.78125,-3.875 -4.875,-3.21875 -4.9375,-1.9375 -0.1875,-0.0312 0.5625,-5.4375 0.1875,0.0312 5.1875,-0.96875 5.40625,-2.1875 0,-3.96875 -5.40625,-2.1875 -5.1875,-0.96875 -0.1875,0.0312 -0.5625,-5.4375 0.1875,-0.0312 4.9375,-1.9375 4.875,-3.21875 -0.78125,-3.875 -5.71875,-1.125 -5.3125,0.0937 -0.15625,0.0625 -1.59375,-5.25 0.15625,-0.0312 4.46875,-2.875 4.15625,-4.09375 -1.53125,-3.6875 -5.84375,0.0625 -5.15625,1.09375 -0.15625,0.0937 -2.59375,-4.8125 0.15625,-0.0937 3.8125,-3.6875 3.28125,-4.84375 -2.21875,-3.28125 -5.71875,1.1875 -4.84375,2.09375 -0.15625,0.125 -3.46875,-4.21875 0.15625,-0.125 3,-4.34375 2.28125,-5.40625 -2.8125,-2.78125 -5.375,2.25 -4.34375,3.03125 -0.125,0.125 -4.21875,-3.46875 0.0937,-0.15625 2.125,-4.84375 1.15625,-5.71875 -3.28125,-2.1875 -4.84375,3.25 -3.65625,3.8125 -0.0937,0.15625 -4.84375,-2.5625 0.0937,-0.15625 1.125,-5.1875 0.0312,-5.84375 -3.65625,-1.5 -4.125,4.15625 -2.84375,4.4375 -0.0625,0.1875 -5.21875,-1.59375 0.0312,-0.1875 0.0937,-5.28125 -1.09375,-5.75 -3.90625,-0.75 -3.21875,4.875 -1.9375,4.90625 0,0.1875 -5.4375,-0.53125 0,-0.1875 -0.9375,-5.21875 -2.21875,-5.40625 -3.9375,0 z m 1.96875,71.90625 c 10.321,0 18.6875,8.3665 18.6875,18.6875 0,10.32099 -8.3665,18.6875 -18.6875,18.6875 -10.321,0 -18.6875,-8.36651 -18.6875,-18.6875 0,-10.321 8.3665,-18.6875 18.6875,-18.6875 z"
           style="fill:#66ff00;stroke:#225500;stroke-width:2;stroke-miterlimit:4;stroke-dasharray:none" />
      </g>
      <path
         transform="translate(754.58395,-80.812203)"
         inkscape:connector-curvature="0"
         d="M -181.65754,695.36489 -27.645155,598.61618 M -183.31334,692.72905 -29.300963,595.98033 M -184.96915,690.0932 -30.956771,593.34448 m -155.668189,94.11287 154.01238,-96.74872 m -155.66819,94.11286 154.012382,-96.74871 m -155.668192,94.11286 154.012383,-96.74871 m -155.668183,94.11286 154.012374,-96.7487 m -155.668184,94.11285 154.012376,-96.7487 M -194.90401,674.2781 -40.891622,577.52939 M -196.55981,671.64225 -42.547432,574.89354 M -198.21562,669.0064 -44.20324,572.25769 m -155.66819,94.11286 154.012382,-96.74872 M -201.52724,663.7347 -47.514857,566.98599 M -203.18305,661.09885 -49.170665,564.35014 M -204.83885,658.463 -50.826474,561.71429 M -206.49466,655.82716 -52.482283,559.07844 M -208.15047,653.19131 -54.138091,556.44259 M -209.80628,650.55546 -55.793899,553.80674 M -211.46209,647.91961 -57.449709,551.17089 M -213.1179,645.28376 -59.105517,548.53505 M -214.7737,642.6479 -60.761325,545.8992 m -155.668195,94.11285 154.012386,-96.7487 M -218.08532,637.37621 -64.072942,540.6275 M -219.74113,634.74036 -65.728751,537.99165 M -221.39694,632.10451 -67.38456,535.3558 m -155.66819,94.11286 154.012382,-96.74871 m -155.668192,94.11286 154.012384,-96.7487 m -155.668194,94.11285 154.012385,-96.7487 M -228.02017,621.56112 -74.007794,524.8124 M -229.67598,618.92527 -75.663602,522.17655 M -231.33179,616.28942 -77.319411,519.5407 M -232.9876,613.65357 -78.975219,516.90485 M -234.64341,611.01772 -80.631028,514.269 m -155.668182,94.11287 154.012373,-96.74871 m -155.668193,94.11286 154.012385,-96.74871 m -155.668185,94.11287 154.012377,-96.74872 m -155.668187,94.11287 154.012378,-96.74872 m -155.668188,94.11286 154.012379,-96.74871 m -155.668189,94.11286 154.012381,-96.74871 m -155.668191,94.11286 154.012382,-96.7487 m -155.668192,94.11285 154.012384,-96.7487 m -155.668184,94.11285 154.012373,-96.7487 M -251.2015,584.65923 -97.18911,487.91052 m -155.66819,94.11286 154.012378,-96.74871 m -155.668188,94.11286 154.01237,-96.74872 m -155.66818,94.11287 154.01238,-96.74872 m -155.66818,94.11287 154.01237,-96.74871 m -155.66819,94.11286 154.01238,-96.74871 m -155.66819,94.11286 154.01238,-96.74871 m -155.66818,94.11287 154.01237,-96.74872 m -155.66818,94.11287 154.01238,-96.74872 m -155.66819,94.11287 154.01237,-96.74872 m -155.66818,94.11287 154.01237,-96.74872 m -155.66818,94.11286 154.01238,-96.7487 m -155.66818,94.11285 154.01237,-96.7487 m -155.66819,94.11286 154.01239,-96.74871 m -155.6682,94.11286 154.01238,-96.74871 m -155.66818,94.11286 154.01237,-96.74871 m -155.66818,94.11286 154.01238,-96.74871 m -57.97549,249.62796 -96.74405,-154.00498"
         style="fill:none;stroke:#338000;stroke-width:1.03759356pt;stroke-linecap:butt;stroke-linejoin:miter;stroke-opacity:1"
         id="path3010-4-0"
         clip-path="url(#clipPath4124)" />
    </g>
    <text
       sodipodi:linespacing="125%"
       id="text3119-4"
       y="440.90411"
       x="242.78372"
       style="font-size:13.15091801px;font-style:normal;font-weight:normal;line-height:125%;letter-spacing:0px;word-spacing:0px;fill:#000000;fill-opacity:1;stroke:none;font-family:Sans"
       xml:space="preserve"><tspan
         y="440.90411"
         x="242.78372"
         id="tspan3121-9"
         sodipodi:role="line">ИКТ-ПРОЕКТ</tspan><tspan
         y="457.34277"
         x="242.78372"
         sodipodi:role="line"
         id="tspan4156">       модель 0.0.1</tspan></text>
  </g>
</svg>
