<?xml version="1.0" encoding="UTF-8" standalone="no"?>
<!-- Created with Inkscape (http://www.inkscape.org/) -->

<svg
   xmlns:dc="http://purl.org/dc/elements/1.1/"
   xmlns:cc="http://creativecommons.org/ns#"
   xmlns:rdf="http://www.w3.org/1999/02/22-rdf-syntax-ns#"
   xmlns:svg="http://www.w3.org/2000/svg"
   xmlns="http://www.w3.org/2000/svg"
   xmlns:xlink="http://www.w3.org/1999/xlink"
   xmlns:sodipodi="http://sodipodi.sourceforge.net/DTD/sodipodi-0.dtd"
   xmlns:inkscape="http://www.inkscape.org/namespaces/inkscape"
   width="88"
   height="31"
   id="svg3231"
   version="1.1"
   inkscape:version="0.48.3.1 r9886"
   sodipodi:docname="php.svg">
  <defs
     id="defs3233">
    <radialGradient
       inkscape:collect="always"
       xlink:href="#linearGradient3798"
       id="radialGradient13263"
       gradientUnits="userSpaceOnUse"
       gradientTransform="matrix(1.5089497,0,0,1.3582164,-39.028917,76.957747)"
       cx="77.914261"
       cy="-48.544521"
       fx="77.914261"
       fy="-48.544521"
       r="146" />
    <linearGradient
       x1="150"
       y1="84"
       x2="299"
       y2="84"
       id="linearGradient3798"
       gradientUnits="userSpaceOnUse">
      <stop
         id="stop3800"
         style="stop-color:#dddce9;stop-opacity:1"
         offset="0" />
      <stop
         id="stop3802"
         style="stop-color:#5664a3;stop-opacity:1"
         offset="0.37" />
      <stop
         id="stop3804"
         style="stop-color:#000000;stop-opacity:1"
         offset="1" />
    </linearGradient>
  </defs>
  <sodipodi:namedview
     id="base"
     pagecolor="#ffffff"
     bordercolor="#666666"
     borderopacity="1.0"
     inkscape:pageopacity="0.0"
     inkscape:pageshadow="2"
     inkscape:zoom="3.959798"
     inkscape:cx="9.6059898"
     inkscape:cy="39.485157"
     inkscape:document-units="px"
     inkscape:current-layer="layer1"
     showgrid="false"
     inkscape:window-width="1033"
     inkscape:window-height="753"
     inkscape:window-x="-3"
     inkscape:window-y="35"
     inkscape:window-maximized="0" />
  <metadata
     id="metadata3236">
    <rdf:RDF>
      <cc:Work
         rdf:about="">
        <dc:format>image/svg+xml</dc:format>
        <dc:type
           rdf:resource="http://purl.org/dc/dcmitype/StillImage" />
        <dc:title></dc:title>
      </cc:Work>
    </rdf:RDF>
  </metadata>
  <g
     inkscape:label="Layer 1"
     inkscape:groupmode="layer"
     id="layer1"
     transform="translate(0,-1021.3622)">
    <g
       transform="matrix(0.25783987,0,0,0.25783987,-255.42675,973.34468)"
       id="g12694">
      <path
         inkscape:connector-curvature="0"
         id="path12708"
         d="m 1051.8967,299.80053 c -2.5413,-1.85827 -1.2561,-2.38309 8.938,-3.64985 4.8568,-0.60353 9.7737,-1.5766 10.9265,-2.16238 1.1527,-0.58578 5.0419,-3.82701 8.6427,-7.20273 4.9286,-4.6207 4.6477,-4.24154 -1.1366,1.53408 l -7.6834,7.67176 4.8855,0.67192 c 5.5334,0.76104 6.8517,1.89826 3.9815,3.43439 -2.991,1.60069 -26.2903,1.3582 -28.5542,-0.29719 z m -1.0396,-28.65264 c 3.2656,-3.3 6.1624,-6 6.4374,-6 0.275,0 -2.1718,2.7 -5.4374,6 -3.2656,3.3 -6.1624,6 -6.4374,6 -0.275,0 2.1718,-2.7 5.4374,-6 z m 2.6043,5.08561 c -0.8294,-0.52518 -1.1242,-1.59139 -0.7265,-2.62781 0.7881,-2.05382 1.5249,-1.55932 2.0961,1.40689 0.4684,2.43176 0.4992,2.40426 -1.3696,1.22092 z m 38.3957,-1.08561 c 0.9955,-1.1 2.035,-2 2.31,-2 0.275,0 -0.3145,0.9 -1.31,2 -0.9955,1.1 -2.035,2 -2.31,2 -0.275,0 0.3145,-0.9 1.31,-2 z m -8.6276,-1.75 c -1.2438,-1.58606 -1.2085,-1.62143 0.3776,-0.37756 0.9625,0.75485 1.75,1.54235 1.75,1.75 0,0.82304 -0.8212,0.29331 -2.1276,-1.37244 z m 108.5865,0.68347 c -0.3625,-0.58659 -0.4447,-1.281 -0.1826,-1.54313 0.2622,-0.26213 0.7431,0.21781 1.0688,1.06653 0.6762,1.76211 0.1,2.07206 -0.8862,0.4766 z m -34.7277,-2.01363 c 0.3536,-1.3522 0.8069,-1.8055 1.0566,-1.05655 0.2404,0.72144 -0.038,1.78716 -0.6194,2.36826 -0.742,0.74207 -0.8722,0.35164 -0.4372,-1.31171 z m 32.3477,0.49683 c 0.048,-1.16495 0.285,-1.4019 0.6042,-0.60417 0.2889,0.72187 0.2534,1.58437 -0.079,1.91667 -0.3323,0.33229 -0.5686,-0.25834 -0.5252,-1.3125 z m 23,0 c 0.048,-1.16495 0.285,-1.4019 0.6042,-0.60417 0.2889,0.72187 0.2534,1.58437 -0.079,1.91667 -0.3323,0.33229 -0.5686,-0.25834 -0.5252,-1.3125 z m 7.079,-0.41667 c 0,-1.375 0.227,-1.9375 0.5044,-1.25 0.2774,0.6875 0.2774,1.8125 0,2.5 -0.2774,0.6875 -0.5044,0.125 -0.5044,-1.25 z m 41.6546,0.31689 c 0.7219,-0.28888 1.5844,-0.25335 1.9167,0.0789 0.3323,0.33229 -0.2584,0.56864 -1.3125,0.52522 -1.165,-0.048 -1.4019,-0.28495 -0.6042,-0.60417 z m -157.7265,-8.93511 c 1.3277,-1.71502 2.6151,-2.93888 2.861,-2.71969 0.2458,0.21918 -0.8405,1.62238 -2.414,3.11821 l -2.861,2.7197 2.414,-3.11822 z m -65.086,-1.88178 c 1.8658,-1.925 3.024,-3.5 2.5737,-3.5 -0.4502,0 -0.2494,-0.68588 0.4464,-1.52417 0.6957,-0.83829 1.5071,-1.28199 1.8031,-0.986 0.296,0.296 1.9193,-0.69743 3.6075,-2.2076 1.6881,-1.51018 -0.069,0.50852 -3.9039,4.48599 -3.8352,3.97748 -7.186,7.23178 -7.4461,7.23178 -0.2602,0 1.0535,-1.575 2.9193,-3.5 z m 124.5643,0.20687 c 0.3755,-0.98622 0.9347,-1.54122 1.2426,-1.23333 0.3079,0.30789 6e-4,1.11479 -0.6828,1.79313 -0.9876,0.98026 -1.1025,0.8654 -0.5598,-0.5598 z m 12.2482,0.61002 c 0.7219,-0.28888 1.5844,-0.25335 1.9167,0.0789 0.3323,0.33229 -0.2584,0.56864 -1.3125,0.52522 -1.165,-0.048 -1.4019,-0.28495 -0.6042,-0.60417 z m 30.9152,-0.0386 c 1.7752,-0.22092 4.9252,-0.22455 7,-0.008 2.0748,0.21647 0.6223,0.39722 -3.2277,0.40165 -3.85,0.004 -5.5475,-0.17268 -3.7723,-0.39359 z m 30.2723,-0.29219 c -1.0553,-0.69179 -0.4624,-0.79289 2,-0.34104 4.3128,0.79138 5.1263,1.35998 1.9167,1.33965 -1.3292,-0.008 -3.0917,-0.4578 -3.9167,-0.99861 z m 7.75,0.35164 c 0.6875,-0.27741 1.8125,-0.27741 2.5,0 0.6875,0.27741 0.125,0.50439 -1.25,0.50439 -1.375,0 -1.9375,-0.22698 -1.25,-0.50439 z m 4.25,-0.71528 c 0,-0.20765 0.7875,-0.99515 1.75,-1.75 1.5861,-1.24387 1.6214,-1.2085 0.3776,0.37756 -1.3064,1.66575 -2.1276,2.19548 -2.1276,1.37244 z m -64.5832,-19.12244 c 10e-4,-10.45 0.1492,-14.58913 0.3293,-9.19806 0.1802,5.39107 0.1794,13.94107 0,19 -0.1808,5.05893 -0.3282,0.64806 -0.3273,-9.80194 z m 43.615,15.94113 c 0.018,-0.51762 0.6925,-1.81464 1.5,-2.88226 0.8075,-1.06762 1.4539,-1.51762 1.4364,-1 -0.017,0.51762 -0.6925,1.81464 -1.5,2.88226 -0.8075,1.06762 -1.4539,1.51762 -1.4364,1 z m -114.5318,-4.44113 c 2.1482,-2.2 4.1309,-4 4.4059,-4 0.275,0 -1.2577,1.8 -3.4059,4 -2.1482,2.2 -4.1309,4 -4.4059,4 -0.275,0 1.2577,-1.8 3.4059,-4 z m 140.5,1.5 c 1.2918,-1.375 2.5736,-2.5 2.8486,-2.5 0.275,0 -0.5568,1.125 -1.8486,2.5 -1.2918,1.375 -2.5736,2.5 -2.8486,2.5 -0.275,0 0.5568,-1.125 1.8486,-2.5 z m -160.4868,-7.48663 c -3.4526,-3.50529 -5.145,-4.61928 -5.6971,-3.75 -0.432,0.68014 -0.7924,0.84928 -0.8008,0.37585 -0.01,-0.47344 -0.8915,0.20156 -1.9624,1.5 l -1.9472,2.36078 -6.2882,-6.24539 -6.2883,-6.24538 3.0032,-3.00315 3.0031,-3.00316 11.466,11.49854 c 6.3062,6.3242 11.2313,11.49854 10.9446,11.49854 -0.2867,0 -2.7315,-2.24399 -5.4329,-4.98663 z m -5.5132,-5.29467 c 0,-0.15472 -2.8125,-2.96722 -6.25,-6.25 l -6.25,-5.9687 5.9687,6.25 c 5.5444,5.80572 6.5313,6.7076 6.5313,5.9687 z m 143.37,0.2813 c 0,-5.775 0.1652,-8.1375 0.3672,-5.25 0.202,2.8875 0.202,7.6125 0,10.5 -0.202,2.8875 -0.3672,0.525 -0.3672,-5.25 z m -204.6746,5.61513 c -4.6265,-4.23775 -4.6997,-6.9318 -0.3009,-11.08039 3.6352,-3.42848 6.7867,-4.29614 5.877,-1.61807 -0.2958,0.87083 7.0554,-5.84167 16.336,-14.91667 l 16.8739,-16.5 -17.9907,18.5 c -9.8949,10.175 -18.1754,18.39026 -18.4012,18.25613 -0.2258,-0.13413 0.4492,-1.25137 1.5,-2.48277 1.6659,-1.95227 1.6795,-2.0596 0.1059,-0.83837 -0.9925,0.77029 -2.2284,2.19243 -2.7464,3.16032 -1.1248,2.10165 -0.1791,5.16494 1.3103,4.24444 0.5773,-0.35682 0.7601,-0.18023 0.4062,0.39243 -0.3539,0.57267 0.027,1.59729 0.8455,2.27696 1.5788,1.31024 2.0385,3.99086 0.6844,3.99086 -0.4425,0 -2.4675,-1.52319 -4.5,-3.38487 z m 171.6651,-5.61513 c 0,-5.225 0.1685,-7.3625 0.3745,-4.75 0.206,2.6125 0.206,6.8875 0,9.5 -0.206,2.6125 -0.3745,0.475 -0.3745,-4.75 z m 61.6395,5.5 c 1.2918,-1.375 2.5736,-2.5 2.8486,-2.5 0.275,0 -0.5568,1.125 -1.8486,2.5 -1.2918,1.375 -2.5736,2.5 -2.8486,2.5 -0.275,0 0.5568,-1.125 1.8486,-2.5 z m -89.7276,-2.5 c 0,-2.475 0.195,-3.4875 0.4333,-2.25 0.2384,1.2375 0.2384,3.2625 0,4.5 -0.2383,1.2375 -0.4333,0.225 -0.4333,-2.25 z m -51.0202,-2.5 c 0.011,-2.2 0.2159,-2.98225 0.4551,-1.73834 0.2391,1.24391 0.2301,3.04391 -0.02,4 -0.2503,0.95609 -0.446,-0.0617 -0.4349,-2.26166 z m 145.7478,-1 c 1.2918,-1.375 2.5736,-2.5 2.8486,-2.5 0.275,0 -0.5568,1.125 -1.8486,2.5 -1.2918,1.375 -2.5736,2.5 -2.8486,2.5 -0.275,0 0.5568,-1.125 1.8486,-2.5 z m -37.8713,-1.25 c -0.7542,-1.7875 -1.718,-3.25 -2.1416,-3.25 -0.4237,0 -1.0718,-1.2375 -1.4403,-2.75 -0.3684,-1.5125 -2.7051,-4.6625 -5.1925,-7 l -4.5226,-4.25 3.6799,0 c 4.5984,0 9.0657,2.56519 10.5007,6.02974 0.6034,1.45673 0.96,5.30847 0.7924,8.55943 l -0.3047,5.91083 -1.3713,-3.25 z m -165.6287,-2.25 c 0.9955,-1.1 2.035,-2 2.31,-2 0.275,0 -0.3145,0.9 -1.31,2 -0.9955,1.1 -2.035,2 -2.31,2 -0.275,0 0.3145,-0.9 1.31,-2 z m 80.769,0.30701 c 0.973,-0.25354 2.323,-0.23687 3,0.037 0.6771,0.27392 -0.119,0.48137 -1.769,0.46099 -1.65,-0.0204 -2.2039,-0.2445 -1.231,-0.49805 z m 8.481,-0.0127 c 1.2375,-0.23835 3.2625,-0.23835 4.5,0 1.2375,0.23835 0.225,0.43337 -2.25,0.43337 -2.475,0 -3.4875,-0.19502 -2.25,-0.43337 z m 117.25,-0.60718 c 0,-0.1721 1.4625,-1.6346 3.25,-3.25 l 3.25,-2.93709 -2.9371,3.25 c -2.7378,3.02945 -3.5629,3.70965 -3.5629,2.93709 z m 0.5393,-6.56315 c -0.353,-1.11216 -1.9242,-3.39502 -3.4917,-5.07302 l -2.85,-3.05092 5.7942,0 c 4.3466,0 5.945,0.39287 6.3976,1.57244 0.7105,1.85152 -0.4238,4.24372 -3.2062,6.76178 -1.9384,1.75423 -2.0225,1.74754 -2.6439,-0.21028 z m 6.5611,-1.82846 c 0.7281,-1.21249 1.5391,-1.98927 1.8022,-1.72619 0.2631,0.26308 -0.3326,1.25511 -1.3239,2.20452 -1.7219,1.64929 -1.7432,1.62798 -0.4783,-0.47833 z m -95.8044,-2.83781 -2.2039,-3.45767 2.4539,0 c 2.1379,0 2.454,0.45084 2.454,3.5 0,1.925 -0.1125,3.48095 -0.25,3.45767 -0.1375,-0.0233 -1.2418,-1.59828 -2.454,-3.5 z m 10.704,2.89756 c 0,-1.10613 3.7397,-5.35523 4.7133,-5.35523 0.3494,0 -0.4556,1.2375 -1.789,2.75 -1.3334,1.5125 -2.5368,2.9375 -2.6743,3.16667 -0.1375,0.22916 -0.25,-0.0235 -0.25,-0.56144 z m -98.0933,-8.94899 c -4.5994,-4.62343 -7.8948,-8.40624 -7.3232,-8.40624 0.5717,0 1.9623,-0.85979 3.0902,-1.91065 2.038,-1.89868 2.099,-1.86225 9.7278,5.81161 l 7.677,7.72227 -2.4046,2.59462 -2.4046,2.59462 -8.3626,-8.40623 z m -26.0942,4.91065 c 0.7219,-0.28888 1.5844,-0.25335 1.9167,0.079 0.3323,0.33229 -0.2584,0.56864 -1.3125,0.52522 -1.165,-0.048 -1.4019,-0.28495 -0.6042,-0.60417 z m 169.1875,-3.34828 c 0,-0.53273 0.675,-0.96861 1.5,-0.96861 0.825,0 1.5,0.17685 1.5,0.39301 0,0.21616 -0.675,0.65203 -1.5,0.96862 -0.825,0.31658 -1.5,0.13972 -1.5,-0.39302 z m -34.25,-0.63089 c 0.6875,-0.27741 1.8125,-0.27741 2.5,0 0.6875,0.27741 0.125,0.50438 -1.25,0.50438 -1.375,0 -1.9375,-0.22697 -1.25,-0.50438 z m 89.4079,-2.33772 c 0,-1.375 0.227,-1.9375 0.5044,-1.25 0.2774,0.6875 0.2774,1.8125 0,2.5 -0.2774,0.6875 -0.5044,0.125 -0.5044,-1.25 z"
         style="fill:#98d7f1" />
      <path
         inkscape:connector-curvature="0"
         id="path12706"
         d="m 1055.9622,279.25758 c -1.7782,-1.85603 -2.3761,-3.1332 -1.6708,-3.56909 0.6041,-0.37334 0.7934,-1.2102 0.4208,-1.8597 -0.3727,-0.64949 0.4743,-0.13286 1.8822,1.14808 2.3767,2.1624 4.3401,7.17102 2.8111,7.17102 -0.3708,0 -1.9203,-1.30064 -3.4433,-2.89031 z m -18.1051,-19.10969 c 0.9955,-1.1 2.035,-2 2.31,-2 0.275,0 -0.3145,0.9 -1.31,2 -0.9955,1.1 -2.035,2 -2.31,2 -0.275,0 0.3145,-0.9 1.31,-2 z m 48.5019,-7.61723 c -3.8656,-3.49232 -3.915,-3.62182 -2.2323,-5.85259 2.1378,-2.83408 2.996,-2.71441 7.7217,1.07663 l 3.7792,3.03179 -2.6578,2.65776 -2.6577,2.65776 -3.9531,-3.57135 z m -41.0019,0.11723 c 1.2917,-1.375 2.5736,-2.5 2.8486,-2.5 0.275,0 -0.5569,1.125 -1.8486,2.5 -1.2917,1.375 -2.5736,2.5 -2.8486,2.5 -0.275,0 0.5569,-1.125 1.8486,-2.5 z m 179.159,-0.49878 c -1.771,-2.39542 -2.1448,-4.23046 -2.08,-10.21073 0.043,-4.00977 0.3358,-6.61549 0.6499,-5.79049 0.314,0.825 0.8907,1.725 1.2815,2 3.0287,2.13129 5.4903,14.95447 3.1486,16.40172 -0.4625,0.28586 -1.8125,-0.79436 -3,-2.4005 z m -196.754,-1.25122 -1.905,-2.25 2.25,1.90499 c 1.2375,1.04774 2.25,2.06024 2.25,2.25 0,0.80025 -0.8048,0.20945 -2.595,-1.90499 z m 215.595,1.87244 c 0,-0.20765 0.7875,-0.99515 1.75,-1.75 1.5861,-1.24387 1.6214,-1.2085 0.3776,0.37756 -1.3064,1.66575 -2.1276,2.19548 -2.1276,1.37244 z m -212,-1.68146 c 0,-0.58246 0.45,-0.7809 1,-0.44098 0.55,0.33992 1,0.81648 1,1.05902 0,0.24254 -0.45,0.44098 -1,0.44098 -0.55,0 -1,-0.47656 -1,-1.05902 z m 142.2056,-9.19098 c -0.1912,-9.06606 -0.3481,-9.75 -2.237,-9.75 -3.5438,0 -3.603,-3.04394 -0.1198,-6.15624 2.4059,-2.1496 4.0943,-2.80719 6.917,-2.69393 2.8983,0.11629 3.1344,0.24156 1.0548,0.55961 l -2.6794,0.40978 2.4294,3.57994 c 1.7473,2.57476 2.4097,4.87446 2.3591,8.19039 -0.039,2.53575 -0.3761,3.93545 -0.75,3.11045 -0.3738,-0.825 -2.4319,-4.08893 -4.5734,-7.25319 -3.0875,-4.56201 -4.1745,-5.52013 -5.25,-4.62755 -2.0218,1.67793 -1.6386,3.88074 0.6751,3.88074 2.7916,0 3.1017,1.32255 2.7157,11.57914 l -0.3358,8.92086 -0.2057,-9.75 z m 73.7944,5.87244 c 0,-0.20765 0.7875,-0.99515 1.75,-1.75 1.5861,-1.24387 1.6214,-1.2085 0.3776,0.37756 -1.3064,1.66575 -2.1276,2.19548 -2.1276,1.37244 z m 15,-7.7937 c 0,-0.64419 -0.7447,-1.99419 -1.655,-3 -1.54,-1.70166 -1.54,-1.95582 0,-3.65748 2.4501,-2.70729 2.0826,-3.17126 -2.5117,-3.17126 -2.2916,0 -3.8937,-0.2729 -3.5602,-0.60645 0.3336,-0.33355 -0.2664,-1.5434 -1.3333,-2.68856 -1.0669,-1.14516 -1.9375,-2.33476 -1.9346,-2.64355 0,-0.30879 4.6154,-0.6222 10.25,-0.69646 8.1873,-0.10791 9.1402,0.01 4.7448,0.587 -3.025,0.39712 -4.9276,0.79537 -4.228,0.88502 0.6996,0.0897 2.5488,2.17629 4.1094,4.63699 1.5605,2.46069 3.2381,4.1551 3.7279,3.76535 0.4899,-0.38975 -0.8881,1.19696 -3.0623,3.52601 -4.3239,4.63215 -4.547,4.78242 -4.547,3.06339 z m -157.2763,-4.60164 c -2.598,-2.63769 -4.7237,-5.24283 -4.7237,-5.78921 0,-0.54637 0.9543,-1.81051 2.1207,-2.80919 2.0862,-1.78628 2.1999,-1.73771 6.9986,2.98879 4.0192,3.95877 4.6029,4.9585 3.3155,5.67894 -0.8593,0.48091 -1.8831,1.7411 -2.2749,2.80043 -0.6348,1.71588 -1.228,1.40274 -5.4362,-2.86976 z m -45.4491,0.2729 c 1.2974,-6.71166 2.5072,-8.5 5.7503,-8.5 3.2353,0 8.9751,2.47542 8.9751,3.87069 0,2.1475 -4.3133,4.55217 -7.6496,4.26472 -2.3212,-0.19997 -4.2103,0.3182 -5.5821,1.53116 -2.0518,1.81412 -2.0675,1.80184 -1.4937,-1.16657 z m -28.4391,-3.62678 c 2.9152,-3.10863 5.1546,-4.62322 6.8356,-4.62322 2.3957,0 2.3221,0.18125 -1.7665,4.34725 -2.9096,2.96459 -4.63,4.04559 -5.4094,3.39879 -0.7361,-0.61093 -1.6503,-0.51273 -2.569,0.27597 -0.7844,0.67344 0.5248,-0.85602 2.9093,-3.39879 z m 20.1645,3.81387 c 0,-0.1721 1.4625,-1.6346 3.25,-3.25 l 3.25,-2.93709 -2.9371,3.25 c -2.7378,3.02945 -3.5629,3.70965 -3.5629,2.93709 z m 185.25,-5.37642 c 0.9625,-0.25152 2.5375,-0.25152 3.5,0 0.9625,0.25153 0.175,0.45733 -1.75,0.45733 -1.925,0 -2.7125,-0.2058 -1.75,-0.45733 z m -33.5,-1.01031 c 5.6493,-0.73196 3.64,-4.7874 -2.754,-5.55862 -1.9228,-0.23192 1.679,-0.42167 8.004,-0.42167 6.325,0 10.064,0.17952 8.309,0.39893 l -3.1911,0.39892 2.0244,2.02437 c 1.1134,1.11341 1.8744,2.16949 1.691,2.34686 -0.1833,0.17736 -4.1583,0.52719 -8.8333,0.77739 -4.675,0.2502 -7.0375,0.26542 -5.25,0.0338 z m 31.329,-1.88369 c 0.048,-1.16495 0.2849,-1.4019 0.6041,-0.60417 0.2889,0.72187 0.2534,1.58437 -0.079,1.91667 -0.3323,0.33229 -0.5686,-0.25834 -0.5252,-1.3125 z m 0.8335,-3.73081 c 0.4486,-0.44777 2.7894,-0.66455 5.2016,-0.48173 l 4.3859,0.33241 -5.2017,0.48173 c -2.8609,0.26495 -4.8346,0.11537 -4.3858,-0.33241 z m -156.7211,-14.99088 -4.2251,-4.30501 2.6329,-2.28929 2.6329,-2.28928 4.384,4.30251 c 4.8808,4.79017 5.1578,5.57817 2.6339,7.49404 -2.6747,2.03036 -3.4999,1.73206 -8.0586,-2.91297 z m -26.6914,-8.69498 c 2.7086,-2.75 5.1498,-5 5.4248,-5 0.275,0 -1.7162,2.25 -4.4248,5 -2.7086,2.75 -5.1498,5 -5.4248,5 -0.275,0 1.7162,-2.25 4.4248,-5 z"
         style="fill:#5cc9f4" />
      <path
         inkscape:connector-curvature="0"
         id="path12704"
         d="m 1064.1071,294.44216 c 1.2375,-0.23836 3.2625,-0.23836 4.5,0 1.2375,0.23835 0.225,0.43337 -2.25,0.43337 -2.475,0 -3.4875,-0.19502 -2.25,-0.43337 z m 130.6555,-0.67987 c -0.2924,-0.76207 -0.3569,-3.34957 -0.1433,-5.75 0.3782,-4.24958 0.3956,-4.21971 0.6628,1.1356 0.2194,4.39752 0.4349,4.99887 1.075,3 l 0.8006,-2.5 0.1,2.75 c 0.1038,2.86174 -1.5691,3.77663 -2.4948,1.3644 z m 9.5945,0.55227 c 0,-0.45834 0.6552,-0.83334 1.456,-0.83334 0.8008,0 1.2243,0.375 0.941,0.83334 -0.2833,0.45833 -0.9385,0.83333 -1.456,0.83333 -0.5176,0 -0.941,-0.375 -0.941,-0.83333 z m 11.8361,-3.24522 c 0.2051,-2.15067 0.7008,-3.70763 1.1017,-3.45991 0.8421,0.52046 0.153,6.3643 -0.8215,6.96658 -0.3592,0.22201 -0.4853,-1.356 -0.2802,-3.50667 z m 4.671,3.09 c -0.3504,-0.56686 0.051,-0.7345 0.941,-0.39301 1.7324,0.66479 2.0494,1.38156 0.6109,1.38156 -0.5175,0 -1.2159,-0.44485 -1.5519,-0.98855 z m 8.3054,0.30544 c 0.7219,-0.28887 1.5844,-0.25335 1.9167,0.0789 0.3323,0.3323 -0.2584,0.56864 -1.3125,0.52522 -1.165,-0.048 -1.4019,-0.28494 -0.6042,-0.60416 z m 6.5618,-0.7839 c -0.3096,-0.80686 -0.331,-2.04436 -0.048,-2.75 0.2835,-0.70564 0.5509,-0.30799 0.5943,0.88368 0.043,1.19166 0.6415,2.39364 1.329,2.67105 0.979,0.39506 0.9722,0.5215 -0.031,0.58333 -0.7048,0.0434 -1.5347,-0.5812 -1.8444,-1.38806 z m 35.4981,-0.28299 c -1.2143,-1.54837 -1.189,-1.60698 0.2196,-0.50868 0.8756,0.68273 1.8881,0.94523 2.25,0.58334 0.3619,-0.3619 0.658,-0.13299 0.658,0.50867 0,1.71208 -1.5548,1.42209 -3.1276,-0.58333 z m -192.0177,-6.38252 c 6.9326,-7.23575 7.2049,-8.58392 2.6066,-12.90387 l -2.5044,-2.35273 -5.7284,5.43277 -5.7285,5.43276 5.7952,-5.98821 5.7953,-5.9882 3.4547,3.73531 c 1.9002,2.05443 3.4548,4.31743 3.4548,5.02889 0,0.71147 -3.0375,4.20558 -6.75,7.76469 l -6.75,6.47111 6.3547,-6.63252 z m 158.418,2.13252 c 0,-3.52455 0.1795,-4.0098 0.8314,-2.24752 0.4573,1.23614 0.4573,3.2589 0,4.49504 -0.6519,1.76228 -0.8314,1.27703 -0.8314,-2.24752 z m 13.2916,2.70687 c 0.3755,-0.98622 0.9347,-1.54122 1.2426,-1.23333 0.3079,0.30789 6e-4,1.11479 -0.6828,1.79313 -0.9876,0.98026 -1.1025,0.8654 -0.5598,-0.5598 z m -42.8143,-0.36915 c 0.6875,-0.27741 1.8125,-0.27741 2.5,0 0.6875,0.27741 0.125,0.50439 -1.25,0.50439 -1.375,0 -1.9375,-0.22698 -1.25,-0.50439 z m 12.0201,-0.56483 c 0.5791,-0.70009 1.2503,-2.62289 1.4916,-4.27289 0.409,-2.79708 0.4488,-2.75359 0.5885,0.64301 0.105,2.55249 -0.3416,3.83156 -1.4916,4.27289 -1.2437,0.47724 -1.3863,0.32141 -0.5885,-0.64301 z m 33.4249,-1.27289 c 0.02,-1.65 0.2445,-2.20394 0.498,-1.23097 0.2535,0.97297 0.2369,2.32297 -0.037,3 -0.2739,0.67703 -0.4814,-0.11903 -0.461,-1.76903 z m -12.6048,0.354 c 0.2763,-0.44697 0.01,-1.83447 -0.5991,-3.08333 -1.0108,-2.0839 -0.9818,-2.12237 0.3527,-0.46767 1.0829,1.34257 1.5754,1.47026 1.9287,0.5 0.261,-0.71665 0.4189,-0.14053 0.351,1.28027 -0.068,1.4208 -0.6662,2.5833 -1.3295,2.58333 -0.6633,4e-5 -0.98,-0.36563 -0.7038,-0.8126 z m 21.5677,-0.854 c 0,-1.375 0.227,-1.9375 0.5044,-1.25 0.2774,0.6875 0.2774,1.8125 0,2.5 -0.2774,0.6875 -0.5044,0.125 -0.5044,-1.25 z m 2,0 c 0,-1.375 0.227,-1.9375 0.5044,-1.25 0.2774,0.6875 0.2774,1.8125 0,2.5 -0.2774,0.6875 -0.5044,0.125 -0.5044,-1.25 z m -67.7836,-1.46701 c -0.3096,-0.80686 -0.331,-2.04436 -0.048,-2.75 0.2835,-0.70564 0.5509,-0.30179 0.5943,0.89746 0.052,1.43246 0.8508,2.32911 2.329,2.61382 l 2.25,0.43337 -2.2814,0.13618 c -1.2548,0.0749 -2.5347,-0.52397 -2.8443,-1.33083 z m 12.19,-0.23986 c -0.5427,-1.4252 -0.4278,-1.54006 0.5598,-0.5598 0.6834,0.67834 0.9907,1.48524 0.6828,1.79313 -0.3079,0.30789 -0.8671,-0.24711 -1.2426,-1.23333 z m 26.5147,-0.87646 c 0.048,-1.16495 0.2849,-1.4019 0.6041,-0.60417 0.2889,0.72187 0.2534,1.58437 -0.079,1.91667 -0.3323,0.33229 -0.5686,-0.25834 -0.5252,-1.3125 z m 9.8783,-0.86525 c 0.6139,-0.73972 2.0175,-1.10925 3.1191,-0.82118 2.4778,0.64795 2.1704,1.00455 -1.4284,1.65714 -2.2682,0.41131 -2.5927,0.25089 -1.6907,-0.83596 z m 12.376,-0.0514 c 0,-0.69612 0.7921,-1.01847 1.8334,-0.74616 1.0083,0.26366 1.8333,0.59943 1.8333,0.74614 0,0.14671 -0.825,0.48248 -1.8333,0.74616 -1.0413,0.27231 -1.8334,-0.05 -1.8334,-0.74616 z m -207.4609,-1.25002 c -1.2438,-1.58606 -1.2085,-1.62143 0.3776,-0.37756 0.9625,0.75485 1.75,1.54235 1.75,1.75 0,0.82304 -0.8212,0.29331 -2.1276,-1.37244 z m 177.9401,1.06689 c 0.7219,-0.28887 1.5844,-0.25335 1.9167,0.0789 0.3323,0.3323 -0.2584,0.56864 -1.3125,0.52522 -1.165,-0.048 -1.4019,-0.28494 -0.6042,-0.60416 z m 42.6248,-0.0875 c 0.3413,-0.34131 1.3238,-0.72378 2.1833,-0.84993 0.8594,-0.12614 1.2834,0.0499 0.9421,0.39123 -0.3413,0.34131 -1.3238,0.72378 -2.1833,0.84993 -0.8594,0.12614 -1.2834,-0.0499 -0.9421,-0.39123 z m -211.9555,-8.24788 c -3.1626,-3.21082 -5.4903,-4.81039 -6.4624,-4.44076 -1.2013,0.45678 -1.2628,0.3192 -0.2939,-0.65705 0.9705,-0.97781 2.4639,-0.0536 7.1758,4.44075 3.2726,3.12155 5.6292,5.67555 5.2369,5.67555 -0.3924,0 -2.9377,-2.25832 -5.6564,-5.01849 z m -18.5394,-1.7123 -2.4424,-2.76921 2.7799,2.45237 2.7798,2.45237 10.2372,-10.20237 c 10.5034,-10.46764 12.5989,-11.58191 16.262,-8.6472 1.8751,1.50228 1.8668,1.51928 -0.2432,0.5 -1.2013,-0.58035 -2.8975,-1.05517 -3.7694,-1.05517 -0.8718,0 -6.1086,4.3875 -11.6372,9.75 -5.5287,5.3625 -10.3834,9.87115 -10.7882,10.01921 -0.4049,0.14807 -1.8352,-0.97693 -3.1785,-2.5 z m 50.2445,0.23079 c 2.0148,-2.24955 2.4508,-3.41884 1.7427,-4.67436 -0.5194,-0.9209 -5.6599,-5.9834 -11.4234,-11.25 -9.6178,-8.78852 -10.8296,-9.58796 -14.7427,-9.72547 -3.2017,-0.11252 -3.5485,-0.25649 -1.3927,-0.57808 1.579,-0.23554 4.0379,-0.13535 5.4642,0.22264 2.4636,0.61832 21.3631,18.21645 23.2073,21.60931 0.6444,1.18565 0.035,2.3594 -2.3352,4.5 l -3.2071,2.89596 2.6869,-3 z m -43.1869,1.12244 c 0,-0.20765 0.7875,-0.99515 1.75,-1.75 1.5861,-1.24387 1.6214,-1.2085 0.3776,0.37756 -1.3064,1.66575 -2.1276,2.19548 -2.1276,1.37244 z m 153.577,-1.17651 c -1.7299,-1.27688 -3.1117,-6.89442 -1.4421,-5.86253 0.3819,0.23598 0.9399,-0.13624 1.24,-0.82717 0.3002,-0.69093 0.2898,-0.0187 -0.023,1.49377 -0.3299,1.5951 -0.134,2.75 0.4664,2.75 0.5693,0 1.2409,0.7875 1.4924,1.75 0.2515,0.9625 0.5095,0.1375 0.5733,-1.83333 0.075,-2.32709 0.6006,-3.58334 1.4984,-3.58334 1.0621,0 1.182,0.69868 0.5175,3.01589 -1.1821,4.12149 -2.0714,4.75859 -4.3229,3.09671 z m 45.3397,1.36309 c -0.4413,-1.63617 -0.5678,-5.4752 -0.2014,-6.10758 0.5614,-0.96874 3.2847,1.14004 3.2847,2.54345 0,0.55 -0.7487,0.3824 -1.6637,-0.37245 -1.5043,-1.24095 -1.552,-1.16269 -0.4973,0.81687 0.763,1.4322 0.8197,2.40362 0.1637,2.80902 -0.5515,0.34084 -1.0402,0.48065 -1.086,0.31069 z m -115.2843,-3.02331 c 0.6314,-1.02162 3.3676,-1.02162 3.3676,0 0,0.43215 -0.867,0.78572 -1.9266,0.78572 -1.0596,0 -1.708,-0.35357 -1.441,-0.78572 z m 4.7752,0.0648 c -0.9059,-1.46579 1.3685,-1.73389 3.1951,-0.37661 1.8163,1.34965 1.7979,1.40303 -0.4287,1.24943 -1.2794,-0.0882 -2.5242,-0.48101 -2.7664,-0.87282 z m 4.9974,-0.95555 c -1.0478,-1.15774 -1.7925,-2.28274 -1.655,-2.5 0.7579,-1.19755 0.058,-1.48034 -1.161,-0.4689 -1.0804,0.89667 -1.5851,0.88916 -2.1545,-0.0321 -0.4502,-0.72841 -0.3217,-0.94238 0.3256,-0.54233 0.588,0.36341 1.2593,0.0954 1.4919,-0.59549 0.337,-1.0014 0.728,-1.00442 1.9274,-0.0149 0.8275,0.68273 1.7466,0.99937 2.0423,0.70364 0.2957,-0.29573 0.7389,0.83318 0.9848,2.50868 0.2459,1.6755 0.3698,3.04636 0.2753,3.04636 -0.094,0 -1.0291,-0.94725 -2.0768,-2.10499 z m 4.595,-0.35983 c 0,-1.48811 0.8403,-2.91455 2.1207,-3.59976 1.4904,-0.79768 1.9187,-0.80814 1.441,-0.0352 -0.3739,0.60486 -0.229,1.09976 0.3219,1.09976 0.5509,0 0.8259,0.91202 0.6113,2.02671 -0.2147,1.11469 0.036,1.76313 0.5574,1.44098 0.5212,-0.32215 0.9477,-1.20761 0.9477,-1.96769 0,-0.76008 0.432,-1.64893 0.9599,-1.97523 0.5625,-0.34763 0.5154,0.68184 -0.1136,2.48643 -1.1932,3.42276 -3.1731,3.50943 -3.6658,0.16047 -0.1758,-1.19442 -0.7908,-2.17167 -1.3666,-2.17167 -0.5776,0 -0.8328,1.12085 -0.5691,2.5 0.2628,1.375 0.09,2.5 -0.3835,2.5 -0.4737,0 -0.8613,-1.10917 -0.8613,-2.46482 z m 9.0119,1.05291 c 0.6508,-0.65079 1.3804,-0.59583 2.1372,0.16099 0.8654,0.86544 0.6215,1.10934 -0.9881,0.98809 -1.4076,-0.10603 -1.7999,-0.49829 -1.1491,-1.14908 z m 4.7843,-1.65314 c 0.2389,-1.62769 0.7511,-3.15516 1.1382,-3.39438 0.387,-0.23922 0.5083,0.8968 0.2694,2.52448 -0.2389,1.62769 -0.7511,3.15516 -1.1381,3.39438 -0.3871,0.23922 -0.5083,-0.8968 -0.2695,-2.52448 z m 2.8705,2.39838 c -0.9032,-0.90312 -0.8461,-4.1044 0.083,-4.67882 0.4125,-0.25494 0.75,0.8435 0.75,2.44098 0,1.59748 -0.037,2.90451 -0.083,2.90451 -0.046,0 -0.3834,-0.3 -0.75,-0.66667 z m 2.6436,-0.96701 c -0.2744,-0.71519 -0.267,-1.87769 0.016,-2.58333 0.2835,-0.70565 0.5509,-0.24393 0.5944,1.02603 0.043,1.26996 0.4978,2.05012 1.0098,1.73369 0.512,-0.31644 1.1672,-0.19299 1.456,0.27431 0.2888,0.46731 -0.173,0.84965 -1.0262,0.84965 -0.8533,0 -1.7759,-0.58516 -2.0504,-1.30035 z m 12.6551,-0.43089 c -0.7048,-1.31696 -1.5493,-1.7696 -2.3323,-1.25 -0.675,0.44802 -0.5311,0.13957 0.3198,-0.68543 0.8509,-0.825 1.5471,-2.0625 1.5471,-2.75 0,-0.6875 0.4397,-1.3625 0.977,-1.5 0.5374,-0.1375 0.9874,1.66226 1,3.99947 0.013,2.33721 -0.074,4.24971 -0.1918,4.25 -0.1182,2.9e-4 -0.7121,-0.92852 -1.3198,-2.06404 z m 3.4632,0.0309 c 0,-0.89813 0.5588,-1.63296 1.2417,-1.63296 0.683,0 1.0292,0.34391 0.7694,0.76424 -0.2598,0.42033 0.055,1.08986 0.6985,1.48784 0.644,0.39798 0.9326,0.31658 0.6414,-0.1809 -0.2911,-0.49748 -0.1673,-1.80451 0.2753,-2.90451 0.6599,-1.64054 0.8172,-1.41788 0.8748,1.2388 0.06,2.77999 -0.2535,3.212 -2.2154,3.04962 -1.3706,-0.11343 -2.2857,-0.84297 -2.2857,-1.82213 z m 6.3959,-0.64047 c 0.4267,-2.09296 0.6782,-2.34442 0.9696,-0.9696 0.2164,1.02092 -0.043,2.29254 -0.5761,2.82582 -0.6262,0.62614 -0.7655,-0.0314 -0.3935,-1.85622 z m 6.1755,1.25751 c 0,-0.77916 -0.5625,-1.64364 -1.25,-1.92105 -0.6875,-0.27741 -0.125,-0.57154 1.25,-0.65362 2.2012,-0.1314 2.2697,-0.23945 0.5731,-0.90408 -1.7241,-0.67542 -1.7504,-0.82256 -0.25,-1.39833 0.9223,-0.35391 1.6769,-0.18105 1.6769,0.38415 0,0.5652 0.5625,0.68969 1.25,0.27666 0.9971,-0.59902 0.9988,-0.44059 0.01,0.78299 -0.6827,0.84368 -0.9077,1.90221 -0.5,2.35228 0.4077,0.45008 0.066,0.4878 -0.7587,0.0838 -0.825,-0.40396 -0.6265,-0.0261 0.4412,0.83968 1.9034,1.54387 1.8986,1.57416 -0.2504,1.57416 -1.2237,0 -2.1911,-0.62547 -2.1911,-1.41667 z m 13,0.41667 c 0,-0.55 0.675,-1 1.5,-1 0.825,0 1.5,0.45 1.5,1 0,0.55 -0.675,1 -1.5,1 -0.825,0 -1.5,-0.45 -1.5,-1 z m 3.1,-2.07861 c -1.2519,-1.69324 -2.0115,-3.34324 -1.6881,-3.66667 0.3235,-0.32343 0.5881,-0.0149 0.5881,0.6856 0,0.70051 0.6286,1.03244 1.3969,0.73761 0.9533,-0.36582 1.5334,0.39411 1.8268,2.39301 0.2365,1.61098 0.3675,2.92906 0.2912,2.92906 -0.076,0 -1.163,-1.38538 -2.4149,-3.07861 z m 4.9,1.07861 c 0,-1.1 0.45,-2 1,-2 0.55,0 1,0.9 1,2 0,1.1 -0.45,2 -1,2 -0.55,0 -1,-0.9 -1,-2 z m 6.6938,1.36052 c -0.3517,-0.35171 -0.4262,-0.98447 -0.1656,-1.40612 0.6148,-0.99487 4.4718,0.008 4.4718,1.16223 0,1.01363 -3.3468,1.20318 -4.3062,0.24389 z m 4.5564,-2.50865 c -1.0175,-2.69562 -1.4118,-2.96262 -2.7434,-1.8575 -0.8553,0.70985 -1.7801,1.06563 -2.0551,0.79063 -0.275,-0.275 0.1858,-1.06922 1.0241,-1.76494 1.1292,-0.93714 1.872,-0.97631 2.8662,-0.15118 0.7381,0.61257 1.584,0.87181 1.8797,0.57608 0.2957,-0.29573 0.7389,0.83318 0.9848,2.50868 0.5805,3.95522 -0.4451,3.90187 -1.9563,-0.10177 z m 4.7498,1.27057 c 0,-1.03265 0.5955,-2.37174 1.3232,-2.97575 1.0593,-0.87906 1.2362,-0.5044 0.8866,1.87756 -0.478,3.2561 -2.2098,4.1168 -2.2098,1.09819 z m 3.7305,1.27474 c -0.3315,-0.33156 -0.2103,-1.63529 0.2695,-2.89718 0.4798,-1.2619 0.601,-2.56563 0.2695,-2.89718 -0.3316,-0.33155 -0.1678,-0.60282 0.3638,-0.60282 0.5317,0 0.9667,1.575 0.9667,3.5 0,3.34491 -0.5576,4.20905 -1.8695,2.89718 z m 5.2695,-0.45933 c 0,-1.13838 2.6864,-1.25425 3.3717,-0.14544 0.2694,0.43583 -0.3791,0.85786 -1.441,0.93785 -1.0619,0.08 -1.9307,-0.27659 -1.9307,-0.79241 z m 11,0.3027 c 0,-0.4177 0.8036,-1.2613 1.7857,-1.87465 1.4758,-0.92168 1.7857,-0.78989 1.7857,0.75945 0,1.133 -0.7064,1.87465 -1.7857,1.87465 -0.9821,0 -1.7857,-0.34175 -1.7857,-0.75945 z m 5.4175,-0.59494 c -0.3334,-0.8688 -0.3742,-2.15698 -0.091,-2.86262 0.2835,-0.70565 0.5652,-0.15799 0.6261,1.21701 0.1071,2.41632 0.1599,2.43503 1.579,0.55887 0.8075,-1.06762 1.4682,-1.46022 1.4682,-0.87244 0,0.58777 -0.6697,1.62446 -1.4882,2.30375 -1.2035,0.99885 -1.6041,0.93295 -2.0943,-0.34457 z m 5.2108,0.1468 c 0.6853,-1.10881 3.3717,-0.99294 3.3717,0.14544 0,0.51582 -0.8688,0.87241 -1.9307,0.79241 -1.0619,-0.08 -1.7104,-0.50202 -1.441,-0.93785 z m 5.1962,-1.46659 c 0.4267,-2.09296 0.6782,-2.34442 0.9696,-0.9696 0.2164,1.02092 -0.043,2.29254 -0.5761,2.82582 -0.6262,0.62614 -0.7655,-0.0314 -0.3935,-1.85622 z m 2.8422,2.00751 c -0.9032,-0.90312 -0.8461,-4.1044 0.083,-4.67882 0.4125,-0.25494 0.75,0.8435 0.75,2.44098 0,1.59748 -0.037,2.90451 -0.083,2.90451 -0.046,0 -0.3834,-0.3 -0.75,-0.66667 z m 4.0885,-1.83333 c 0.2629,-1.375 0.6505,-2.5 0.8614,-2.5 0.2109,0 0.3834,1.125 0.3834,2.5 0,1.375 -0.3876,2.5 -0.8613,2.5 -0.4738,0 -0.6463,-1.125 -0.3835,-2.5 z m -144.2634,-2.25 c 0.049,-1.59115 0.5954,-2.64465 1.2965,-2.5 0.6664,0.1375 1.2117,-0.2 1.2117,-0.75 0,-0.55 0.675,-1 1.5,-1 0.825,0 1.5,0.45 1.5,1 0,0.55 -0.6861,1 -1.5247,1 -0.8387,0 -1.9525,1.125 -2.4753,2.5 -1.2251,3.22235 -1.6132,3.15803 -1.5082,-0.25 z m 120.5082,0.25 c -1.0196,-1.22851 -0.9512,-1.5 0.3776,-1.5 0.8923,0 1.6224,0.675 1.6224,1.5 0,0.825 -0.1699,1.5 -0.3776,1.5 -0.2076,0 -0.9377,-0.675 -1.6224,-1.5 z m -106,-0.44098 c 0,-0.51754 0.4449,-1.21592 0.9886,-1.55194 0.5668,-0.35034 0.7345,0.0511 0.393,0.94098 -0.6648,1.73242 -1.3816,2.04939 -1.3816,0.61096 z m 11.4589,-0.12555 c -0.3625,-0.58659 -0.3891,-1.33659 -0.059,-1.66667 0.33,-0.33007 0.6001,-0.0486 0.6001,0.62555 0,0.67413 0.5195,0.9046 1.1545,0.51216 0.7153,-0.44208 0.8831,-0.27432 0.441,0.44098 -0.8841,1.43055 -1.2964,1.44753 -2.1366,0.088 z m 17.5411,0.12555 c 0,-0.51754 0.4449,-1.21592 0.9886,-1.55194 0.5668,-0.35034 0.7345,0.0511 0.393,0.94098 -0.6648,1.73242 -1.3816,2.04939 -1.3816,0.61096 z m 17.3517,0.1809 c 0.3634,-0.58801 0.095,-1.29701 -0.5955,-1.57556 -0.8991,-0.3625 -0.9177,-0.52891 -0.065,-0.58541 1.7209,-0.11408 2.5476,1.6556 1.1709,2.50646 -0.6979,0.43129 -0.9039,0.29173 -0.5101,-0.34549 z m 22.6483,-0.1809 c 0,-0.51754 0.4449,-1.21592 0.9886,-1.55194 0.5668,-0.35034 0.7345,0.0511 0.393,0.94098 -0.6648,1.73242 -1.3816,2.04939 -1.3816,0.61096 z m 5.5095,-0.0745 c 0.6154,-0.99568 0.3435,-1.14345 -1.0955,-0.59527 -1.5354,0.58494 -1.6667,0.48009 -0.664,-0.53006 0.9001,-0.90678 1.5543,-0.95495 2.3371,-0.17211 0.7829,0.78284 0.7396,1.30192 -0.1545,1.85451 -0.8572,0.5298 -0.9882,0.35733 -0.4231,-0.55707 z m 21.8599,-0.46432 c -0.8442,-2.19989 0.084,-2.88424 1.5367,-1.13345 0.8179,0.98558 0.8603,1.63951 0.1354,2.08755 -0.5806,0.35883 -1.333,-0.0705 -1.6721,-0.9541 z m 19.9801,0.23617 c -0.3696,-0.59795 -0.1894,-0.77552 0.4106,-0.4047 0.588,0.36341 1.297,0.0954 1.5755,-0.59549 0.3926,-0.97369 0.5243,-0.96182 0.5854,0.0528 0.046,0.75641 0.6067,1.00534 1.329,0.58967 0.6875,-0.39564 0.8995,-0.33417 0.4711,0.1366 -1.1801,1.29672 -3.6303,1.42066 -4.3716,0.22114 z m -92.8596,-0.77274 c -0.3454,-0.55897 -1.1165,-0.71444 -1.7135,-0.34549 -0.6635,0.41005 -0.7964,0.20314 -0.3419,-0.53224 0.5694,-0.92122 1.0741,-0.92874 2.1545,-0.0321 1.4152,1.1745 1.7937,1.92611 0.97,1.92611 -0.2425,0 -0.7236,-0.45734 -1.0691,-1.01631 z m 14.0101,0.0163 c 0.3399,-0.55 1.0415,-1 1.559,-1 0.5176,0 0.941,0.45 0.941,1 0,0.55 -0.7016,1 -1.559,1 -0.8575,0 -1.2809,-0.45 -0.941,-1 z m 71.5,-0.059 c 0,-0.58246 0.45,-0.7809 1,-0.44098 0.55,0.33992 1,0.81647 1,1.05901 0,0.24255 -0.45,0.44099 -1,0.44099 -0.55,0 -1,-0.47656 -1,-1.05902 z m 3.6131,-1.12396 c 0.2888,-0.46731 0.944,-0.59075 1.456,-0.27432 1.3084,0.80863 1.1611,1.12396 -0.5251,1.12396 -0.8008,0 -1.2197,-0.38234 -0.9309,-0.84964 z m -14.6131,-0.81702 c 0,-0.55 0.4234,-1 0.941,-1 0.5175,0 1.2191,0.45 1.559,1 0.3399,0.55 -0.083,1 -0.941,1 -0.8574,0 -1.559,-0.45 -1.559,-1 z m -213.0757,-3.75 -2.4243,-2.75 2.75,2.42431 c 2.5703,2.26589 3.2086,3.07569 2.4243,3.07569 -0.1791,0 -1.4166,-1.2375 -2.75,-2.75 z m 74.0757,0.25 c 1.2917,-1.375 2.5736,-2.5 2.8486,-2.5 0.275,0 -0.5569,1.125 -1.8486,2.5 -1.2917,1.375 -2.5736,2.5 -2.8486,2.5 -0.275,0 0.5569,-1.125 1.8486,-2.5 z m -54.0129,-12.7559 c 7.9679,-8.10925 14.8015,-14.7441 15.1859,-14.7441 0.8443,0 -10.6718,11.68607 -21.6741,21.9941 -4.3994,4.12176 -1.4797,0.85926 6.4882,-7.25 z m 33.4995,-0.9941 -13.9866,-14.25 14.25,13.9866 c 13.2376,12.99292 14.7029,14.5134 13.9866,14.5134 -0.1449,0 -6.5574,-6.4125 -14.25,-14.25 z m 69.2634,12.50349 11.25,-0.31899 0,-4.13392 c 0,-4.3986 0.6955,-4.77975 1.35,-0.73986 0.8718,5.3814 -0.4022,5.95869 -12.6352,5.72552 l -11.2148,-0.21375 11.25,-0.319 z m 29.6154,0.0935 c 1.7537,-0.50589 1.8435,-1.68571 1.5,-19.69258 l -0.3654,-19.15445 -3.5,-0.64563 -3.5,-0.64562 4,0.14562 4,0.14563 0,19.9863 c 0,19.25088 -0.074,19.9939 -2,20.19259 -1.7673,0.18227 -1.7829,0.14365 -0.1346,-0.33186 z m 14.0757,-1.90219 c -1.91,-1.53029 -1.9091,-1.54045 0.059,-0.63513 1.1,0.50602 2.675,1.17032 3.5,1.47622 1.2958,0.48044 1.2878,0.56693 -0.059,0.63512 -0.8573,0.0434 -2.4323,-0.62087 -3.5,-1.47621 z m 42.1482,0.69962 c -0.2908,-0.47055 0.5826,-0.64309 1.941,-0.38342 1.3583,0.25966 2.4697,0.64465 2.4697,0.85554 0,0.77375 -3.8986,0.35644 -4.4107,-0.47212 z m 10.4107,0.65626 c 0,-0.35405 6.0629,-7.71658 13.4731,-16.36118 7.4103,-8.64461 13.1907,-16.17446 12.8455,-16.73301 -0.3672,-0.59424 -0.1285,-0.70709 0.5755,-0.27201 1.4178,0.87628 2.3888,-0.47177 -12.2854,17.05614 -12.1065,14.46097 -14.6087,17.25454 -14.6087,16.31006 z m -116.49,-3.79029 c -1.5753,-1.64426 -2.672,-3.14926 -2.4371,-3.34443 0.2349,-0.19518 1.7089,1.15013 3.2756,2.98957 3.5373,4.15314 3.013,4.375 -0.8385,0.35486 z m -18.8578,-4.35826 c 5.1313,-5.1313 5.3478,-5.56449 5.3478,-10.69912 l 0,-5.35129 -22.2259,-22.55088 -22.2258,-22.55088 22.7258,22.54499 22.7259,22.545 0,5.26486 c 0,4.96607 -0.292,5.57362 -5.1451,10.70501 -2.8297,2.99208 -5.4613,5.44014 -5.8478,5.44014 -0.3865,0 1.7038,-2.40652 4.6451,-5.34783 z m -81.4509,1.45929 3.2328,-2.88854 -3.717,-4.11434 c -2.0444,-2.26289 -3.7171,-4.6486 -3.7171,-5.30159 0,-1.17403 36.8764,-38.80699 38.0268,-38.80699 0.3278,0 -7.6441,8.19654 -17.7154,18.21454 -20.2646,20.1574 -20.6302,20.79782 -15.1198,26.48314 l 3.1916,3.2929 -2.8787,3.00471 c -1.5833,1.65259 -3.2516,3.00471 -3.7074,3.00471 -0.4557,0 0.6261,-1.29984 2.4042,-2.88854 z m 69.723,0.13854 -2.4243,-2.75 3,2.5 c 1.65,1.375 3.1875,2.6125 3.4167,2.75 0.2291,0.1375 -0.03,0.25 -0.5757,0.25 -0.5458,0 -2.0833,-1.2375 -3.4167,-2.75 z m 89.5346,-0.31653 c -0.3625,-0.58659 -0.4447,-1.281 -0.1826,-1.54313 0.2622,-0.26213 0.7431,0.21781 1.0688,1.06653 0.6762,1.76211 0.1,2.07206 -0.8862,0.4766 z m 50.5411,0.68897 c 0,-0.20765 0.7875,-0.99515 1.75,-1.75 1.5861,-1.24387 1.6214,-1.2085 0.3776,0.37756 -1.3064,1.66575 -2.1276,2.19548 -2.1276,1.37244 z m -103.4102,-2.52316 c -1.126,-1.24423 -1.3522,-2.1281 -0.6549,-2.55902 1.0826,-0.66911 1.2183,-0.50797 1.4401,1.70974 0.089,0.88956 3.5852,1.40826 12.125,1.79886 l 12,0.54887 -11.595,0.20113 c -10.2751,0.17824 -11.7908,-0.0152 -13.3152,-1.69958 z m 60.4454,-0.0335 c -0.5694,-1.06384 -1.0352,-6.14884 -1.0352,-11.3 0,-9.27704 0.7826,-11.76574 3.7,-11.76574 0.8333,0 0.5821,0.71795 -0.7,2 -1.6925,1.69247 -2,3.33333 -2,10.67126 0,6.66537 0.3828,9.09429 1.655,10.5 0.933,1.03098 1.1665,1.82874 0.5352,1.82874 -0.6159,0 -1.5857,-0.87042 -2.155,-1.93426 z m 32.3466,-10.56574 c 0,-6.6 0.1638,-9.16987 0.3596,-5.71081 0.1958,3.45905 0.1942,8.85905 0,12 -0.1974,3.14094 -0.3576,0.31081 -0.3556,-6.28919 z m -212.5094,8.75 c -1.2438,-1.58606 -1.2085,-1.62143 0.3776,-0.37756 0.9625,0.75485 1.75,1.54235 1.75,1.75 0,0.82304 -0.8212,0.29331 -2.1276,-1.37244 z m 110.4557,-4.75 c 0,-3.85 0.1852,-5.30246 0.4017,-3.2277 0.2165,2.07477 0.2128,5.22477 -0.01,7 -0.221,1.77524 -0.3981,0.0777 -0.3937,-3.7723 z m -29.3281,5.18709 c 0,-0.1721 1.4625,-1.6346 3.25,-3.25 l 3.25,-2.93709 -2.9371,3.25 c -2.7378,3.02945 -3.5629,3.70965 -3.5629,2.93709 z m 90.37,-9.68709 c 0,-5.775 0.1652,-8.1375 0.3672,-5.25 0.202,2.8875 0.202,7.6125 0,10.5 -0.202,2.8875 -0.3672,0.525 -0.3672,-5.25 z m -20.1935,4 c -0.1197,-3.57693 -0.9242,-6.71419 -2.3009,-8.97259 -1.2891,-2.11466 -1.5253,-2.98154 -0.6038,-2.21684 2.5345,2.10352 3.8696,6.64174 3.4692,11.79323 l -0.3805,4.8962 -0.184,-5.5 z m 53.184,-4 c 0,-5.225 0.1685,-7.3625 0.3745,-4.75 0.206,2.6125 0.206,6.8875 0,9.5 -0.206,2.6125 -0.3745,0.475 -0.3745,-4.75 z m -138.3826,-2.60816 c -4.6628,-4.73449 -9.8279,-9.45781 -11.4779,-10.49626 -1.65,-1.03846 -2.3662,-1.88979 -1.5917,-1.89184 1.2696,-0.003 23.3126,20.95562 22.0696,20.98424 -0.2871,0.007 -4.3371,-3.86165 -9,-8.59614 z m 52.0221,3.30816 c 0,-1.75865 2.0581,-3.7 3.9225,-3.7 1.0014,0 0.6763,0.59893 -0.95,1.75 l -2.4725,1.75 5,0.5929 5,0.59289 -5.25,0.15711 c -3.7216,0.11136 -5.25,-0.22136 -5.25,-1.1429 z m -49.5556,-20.70744 c -9.9306,-9.89591 -17.8009,-17.99256 -17.4896,-17.99256 0.3113,0 8.6567,8.1 18.5452,18 9.8885,9.9 17.7589,17.99665 17.4896,17.99256 -0.2693,-0.004 -8.6146,-8.1041 -18.5452,-18 z m 45.0556,13.00744 c 0.9955,-1.1 2.035,-2 2.31,-2 0.275,0 -0.3145,0.9 -1.31,2 -0.9955,1.1 -2.035,2 -2.31,2 -0.275,0 0.3145,-0.9 1.31,-2 z m -103,-11 c 6.5828,-6.6 12.1937,-12 12.4687,-12 0.275,0 -4.8859,5.4 -11.4687,12 -6.5828,6.6 -12.1937,12 -12.4687,12 -0.275,0 4.8859,-5.4 11.4687,-12 z m 142.25,8.33772 c 0.6875,-0.27741 1.8125,-0.27741 2.5,0 0.6875,0.27741 0.125,0.50438 -1.25,0.50438 -1.375,0 -1.9375,-0.22697 -1.25,-0.50438 z m -30.0223,-1.05945 c 1.7752,-0.22091 4.9252,-0.22454 7,-0.008 2.0748,0.21647 0.6223,0.39722 -3.2277,0.40166 -3.85,0.004 -5.5475,-0.17268 -3.7723,-0.3936 z m 102.5639,-0.0208 c 3.7354,-0.19293 9.5854,-0.1915 13,0.003 3.4146,0.19467 0.3584,0.35252 -6.7916,0.35078 -7.15,-0.002 -9.9438,-0.16104 -6.2084,-0.35396 z m 31.0417,-6.71352 c 0,-0.8008 0.3824,-1.21971 0.8497,-0.9309 0.4673,0.28881 0.5907,0.94402 0.2743,1.45601 -0.8086,1.30839 -1.124,1.16106 -1.124,-0.52511 z m -66.5569,-2.27748 c 2.3521,-0.21125 5.9521,-0.20827 8,0.007 2.048,0.21488 0.1236,0.38771 -4.2764,0.38408 -4.4,-0.004 -6.0756,-0.17944 -3.7236,-0.39069 z m 38.423,-0.0103 c 4.7847,-0.18291 12.8847,-0.18377 18,-0.002 5.1153,0.18186 1.2006,0.33151 -8.6994,0.33256 -9.9,0.001 -14.0853,-0.14775 -9.3006,-0.33065 z m 33.8006,-1.67438 c 0,-0.78002 -0.2774,-2.14116 -0.6165,-3.02476 -0.4898,-1.27636 -0.012,-1.56051 2.3233,-1.38255 2.5554,0.19472 2.8837,0.55745 2.5116,2.77476 l -0.4281,2.55076 1.7329,-2.35185 c 1.3588,-1.84416 1.9178,-2.06002 2.5895,-1 1.1532,1.81978 1.1103,3.85185 -0.081,3.85185 -0.5327,0 -0.7096,-0.675 -0.393,-1.5 0.3166,-0.825 0.1256,-1.5 -0.4244,-1.5 -0.55,0 -1.259,0.675 -1.5756,1.5 -0.917,2.38961 -2.6384,1.73716 -2.6384,-1 0,-1.44237 -0.5759,-2.5 -1.3613,-2.5 -0.9129,0 -1.2039,0.82359 -0.8835,2.5 0.2629,1.375 0.2005,2.5 -0.1386,2.5 -0.3391,0 -0.6166,-0.6382 -0.6166,-1.41821 z m -214.75,-29.27112 c 0.9625,-0.25152 2.5375,-0.25152 3.5,0 0.9625,0.25153 0.175,0.45733 -1.75,0.45733 -1.925,0 -2.7125,-0.2058 -1.75,-0.45733 z"
         style="fill:#9a9e9f" />
      <path
         inkscape:connector-curvature="0"
         id="path12702"
         d="m 1040.3878,274.6806 -2.3179,-2.46729 7.8936,-8.1666 c 11.2,-11.58738 14.6331,-13.9218 20.2936,-13.79914 3.5503,0.0769 4.0307,0.25809 2.1053,0.79384 -1.3722,0.3818 -2.6481,1.57444 -2.8355,2.65032 -0.3107,1.78371 -20.8488,23.45616 -22.2284,23.45616 -0.326,0 -1.6358,-1.11028 -2.9107,-2.46729 z m 37.7843,-7.3104 c -7.8562,-8.07188 -9.2808,-9.9978 -8.1657,-11.03942 0.7429,-0.69396 1.3507,-2.16878 1.3507,-3.27737 0,-2.20875 2.78,0.0339 15.9206,12.8435 l 6.4206,6.25887 -2.3449,2.49605 c -1.2897,1.37283 -2.6419,2.49606 -3.0049,2.49606 -0.363,0 -4.9423,-4.39996 -10.1764,-9.77769 z m 57.6034,-6.19116 c -1.1448,-0.46315 -3.2823,-2.26915 -4.75,-4.01334 -2.3737,-2.82107 -2.6684,-4.00203 -2.6684,-10.69454 0,-7.22254 0.1359,-7.65918 3.4,-10.92327 3.6073,-3.60731 5.1875,-3.85238 23.7074,-3.67665 8.3438,0.0792 12.8926,5.11402 12.8926,14.27007 l 0,5.09275 -15.75,-0.0884 c -8.6625,-0.0486 -16.1572,-0.068 -16.655,-0.0431 -0.4977,0.0249 -0.068,0.9703 0.9553,2.10087 1.7105,1.89003 2.8104,2.03098 13.6569,1.75 l 11.7966,-0.30558 0,3.75 0,3.75 -12.25,-0.0634 c -6.7375,-0.0349 -13.1867,-0.44232 -14.3316,-0.90546 z m 24.4741,-18.6389 c 0.2159,-0.18915 -0.1767,-1.02979 -0.8724,-1.86808 -0.9817,-1.18286 -3.5441,-1.52417 -11.4425,-1.52417 -10.1519,0 -12.5776,0.7252 -12.5776,3.76024 0,1.11063 2.2479,1.23323 12.25,0.66809 6.7375,-0.38069 12.4266,-0.84692 12.6425,-1.03608 z m 6.0757,-3.30277 c -0.099,-1.83432 -6.5459,-6.98784 -7.4064,-5.9205 -2.2256,2.76058 -2.1603,4.27229 0.2749,6.36702 2.1095,1.81443 3.0129,2.034 4.8762,1.18502 1.2579,-0.57313 2.2728,-1.30732 2.2553,-1.63154 z"
         style="fill:#f1a43e" />
      <path
         inkscape:connector-curvature="0"
         id="path12700"
         d="m 1062.2188,285.25377 c -1.3364,-1.05122 -2.5105,-3.13281 -2.6383,-4.6776 l -0.2304,-2.78348 2.3737,2.22997 c 1.3055,1.22649 3.2571,2.29652 4.3368,2.37785 2.1107,0.15899 2.699,2.77595 0.8952,3.98207 -1.6067,1.07438 -2.0792,0.96179 -4.737,-1.12881 z m -12.6216,-7.86149 2.1191,-2.2556 2.3204,2.17992 c 1.2762,1.19895 2.3204,2.21398 2.3204,2.2556 0,0.0416 -1.9978,0.0757 -4.4395,0.0757 l -4.4394,0 2.119,-2.25561 z m 31.3446,1.8637 c -3.4912,-0.54223 -3.7349,-0.75673 -2.25,-1.98054 0.9159,-0.75484 1.6795,-2.10484 1.6969,-3 0.023,-1.19811 0.6829,-0.88723 2.5,1.17821 1.9636,2.23196 3.4293,5.23965 2.2184,4.55233 -0.1375,-0.0781 -2.0119,-0.41554 -4.1653,-0.75 z m 13.3868,-18.74329 c -3.0093,-3.10569 -4.9562,-5.36086 -4.3263,-5.01149 0.6299,0.34936 1.392,-0.008 1.6935,-0.79364 0.3016,-0.78586 1.4357,-1.90372 2.5202,-2.48414 1.6999,-0.90978 2.5563,-0.35718 6.2107,4.00761 l 4.2389,5.0629 -2.4327,2.43273 -2.4328,2.43273 -5.4715,-5.6467 z m 113.6989,0.7126 6.1704,-0.5774 -1.7648,-2.16856 c -0.9706,-1.1927 -3.0722,-2.36278 -4.6703,-2.60017 -1.5982,-0.23738 0.3241,-0.49903 4.2717,-0.58144 6.4171,-0.13396 7.3906,-0.42076 9.1892,-2.70742 l 2.0118,-2.55758 1.6702,2.549 c 0.9186,1.40195 2.1176,2.27246 2.6645,1.93446 0.5469,-0.338 0.2463,0.5271 -0.6679,1.92243 -2.7584,4.2098 -7.3428,5.73005 -16.6963,5.53668 l -8.3489,-0.1726 6.1704,-0.5774 z m 37.3296,0.52959 c 0,-0.21616 0.6984,-0.661 1.5519,-0.98855 0.89,-0.34149 1.2914,-0.17385 0.941,0.39301 -0.5872,0.95021 -2.4929,1.40545 -2.4929,0.59554 z m -208.1022,-1.8866 c 1.7333,-2.20928 -0.087,-7.33849 -2.1521,-6.06521 -0.6851,0.42237 1.6793,-2.50542 5.2543,-6.50621 7.0488,-7.88831 19.9409,-19.54136 20.7377,-18.74457 0.2715,0.27143 -0.01,1.93363 -0.6221,3.69378 -1.8373,5.27045 -1.5029,6.53974 1.1344,4.30681 l 2.25,-1.90499 -2,2.3638 c -2.5532,3.01768 -26.4707,25.23812 -24.6022,22.85659 z m 136.3746,-4.72039 c 0,-2.475 0.195,-3.4875 0.4333,-2.25 0.2384,1.2375 0.2384,3.2625 0,4.5 -0.2383,1.2375 -0.4333,0.225 -0.4333,-2.25 z m 77.0379,0.83765 2.6731,-3.50464 -2.2987,-2.1595 c -1.8553,-1.74294 -2.5615,-1.91973 -3.6609,-0.91651 -0.7491,0.68365 1.4634,-2.26956 4.9168,-6.56268 6.0299,-7.49622 6.3538,-7.73786 8.1691,-6.09501 1.0397,0.94086 1.8903,2.38566 1.8903,3.21066 0,1.21051 0.4242,1.13235 2.1981,-0.40498 1.209,-1.04775 -1.5497,2.71725 -6.1305,8.36665 -7.9298,9.77981 -13.4137,15.48193 -7.7573,8.06601 z m -146.0478,-0.0196 -2.1819,-2.1819 3.9313,-4.26489 c 3.1284,-3.39395 3.9043,-4.98117 3.7993,-7.77246 -0.1389,-3.69493 1.5228,-6.59884 3.7761,-6.59884 2.2778,0 3.6639,4.03426 3.1661,9.21518 -0.3994,4.15553 -1.1514,5.6147 -4.8215,9.35419 -2.3916,2.43685 -4.6046,4.43063 -4.9179,4.43063 -0.3132,0 -1.5514,-0.98186 -2.7515,-2.18191 z m 96.4875,-0.48037 c 0.6875,-0.27741 1.8125,-0.27741 2.5,0 0.6875,0.27741 0.125,0.50438 -1.25,0.50438 -1.375,0 -1.9375,-0.22697 -1.25,-0.50438 z m -20.634,-1.19382 c -0.064,-0.74585 -1.4437,-3.03246 -3.0665,-5.08136 -2.5177,-3.17892 -2.9944,-4.73995 -3.25,-10.6439 -0.273,-6.30685 -0.4985,-6.9469 -2.5495,-7.23819 -2.5015,-0.35527 -2.9583,-2.34774 -0.9251,-4.03513 1.0344,-0.85846 2.2814,0.26587 5.6871,5.12756 3.8599,5.51001 4.4103,6.98617 4.779,12.81845 0.3399,5.37542 -0.2793,13.67878 -0.675,9.05257 z m 15.0731,-14.77146 c -0.1088,-2.95148 -0.7798,-5.61781 -1.581,-6.28275 -0.7656,-0.63537 -1.6233,-2.03992 -1.9061,-3.12124 -1.0851,-4.14959 9.7663,-8.10015 13.098,-4.76845 2.2248,2.22482 1.3357,3.8 -2.145,3.8 -4.7196,0 -6.4725,2.41438 -6.909,9.51588 l -0.3678,5.98412 -0.1891,-5.12756 z m -165.5415,-7.37244 c 1.4666,-1.72935 1.8904,-3.11652 1.3747,-4.5 -0.41,-1.1 -0.5134,-2.675 -0.2296,-3.5 0.2837,-0.825 -1.0159,-0.15 -2.888,1.5 -3.3303,2.9352 10.6472,-12.15868 16.588,-17.91287 16.5518,-16.03192 15.9397,-15.58713 21.4488,-15.58713 4.572,0 5.5865,0.42027 9.2394,3.82768 l 4.1035,3.82768 -2.7086,2.51153 -2.7085,2.51152 -3.0394,-2.8392 c -4.336,-4.05041 -6.9322,-3.66899 -10.877,1.59802 -1.3143,1.75491 -1.2803,1.87323 0.362,1.25723 1.6688,-0.62591 1.6546,-0.46184 -0.1782,2.06277 -4.568,6.29238 -19.8159,20.34188 -22.2032,20.45815 -1.3373,0.0651 -4.2253,1.73082 -6.4178,3.70153 -2.1925,1.9707 -3.0322,2.45809 -1.8661,1.08309 z m 230.2248,0.75 c 1.2841,-1.63726 0.8009,-1.75493 -7.5,-1.82651 -4.8798,-0.0421 -9.7724,-0.26274 -10.8724,-0.49036 -1.1,-0.22761 -3.0125,-0.51633 -4.25,-0.64159 -1.7395,-0.17609 -2.25,-0.85887 -2.25,-3.00965 0,-2.59308 0.2885,-2.78755 4.25,-2.86521 2.3375,-0.0458 5.8704,-0.25408 7.8509,-0.46279 3.007,-0.31687 3.8184,0.0268 4.919,2.08332 0.7249,1.35453 1.7186,2.46279 2.2081,2.46279 0.4895,0 0.6119,0.45 0.272,1 -0.3733,0.60393 0.9896,1 3.441,1 4.3761,0 5.0805,0.95403 2.309,3.12755 -1.5861,1.24388 -1.6214,1.20851 -0.3776,-0.37755 z m -49.6224,-3.43933 c 0.9625,-0.25152 2.5375,-0.25152 3.5,0 0.9625,0.25153 0.175,0.45733 -1.75,0.45733 -1.925,0 -2.7125,-0.2058 -1.75,-0.45733 z m 43,-6 c 0.9625,-0.25152 2.5375,-0.25152 3.5,0 0.9625,0.25153 0.175,0.45733 -1.75,0.45733 -1.925,0 -2.7125,-0.2058 -1.75,-0.45733 z"
         style="fill:#0fa6e3" />
      <path
         inkscape:connector-curvature="0"
         id="path12698"
         d="m 1050.47,284.02585 -4.34,-4.00737 2.2879,-2.43529 c 2.7354,-2.91167 4.0364,-3.30518 1.4392,-0.4353 -1.7781,1.96475 -1.7466,2 1.7842,2 2.7372,0 4.6621,0.92433 8.0733,3.87668 l 4.4792,3.87668 -4.1684,-0.20675 c -2.2925,-0.11371 -4.4039,0.14098 -4.6919,0.56598 -0.288,0.42501 -2.4765,-1.03058 -4.8635,-3.23463 z m 25.4724,3.25999 c -0.2931,-0.47413 -2.6821,-0.70402 -5.3091,-0.51087 -3.146,0.23132 -4.2862,0.0396 -3.3405,-0.56173 1.2344,-0.7849 1.239,-1.16901 0.033,-2.73914 -0.7715,-1.00441 -0.9972,-1.4808 -0.5015,-1.05863 0.4957,0.42217 2.4559,-0.70283 4.3559,-2.5 3.2484,-3.07244 3.4199,-3.12478 2.8725,-0.87636 -0.5431,2.23038 -0.3352,2.16312 3.0898,-1 2.0196,-1.86517 2.8243,-2.37872 1.7883,-1.14122 l -1.8837,2.25 3.596,0 c 1.9778,0 3.8438,0.401 4.1467,0.89112 0.3029,0.49011 -1.2468,2.51511 -3.4439,4.5 -4.3165,3.89976 -4.6015,4.04461 -5.4035,2.74683 z m -46.9551,-24.0021 -2.5995,-2.71327 8.2346,-7.95783 c 4.5291,-4.37681 6.5988,-6.21848 4.5993,-4.09259 -3.5079,3.72972 -3.5816,3.95887 -2.1026,6.53581 1.4313,2.49395 1.3741,2.91452 -0.8647,6.35934 -3.1512,4.84884 -4.1627,5.1089 -7.2671,1.86854 z m 61.3698,-5.63585 c -4.0975,-4.125 -7.2249,-7.5 -6.9499,-7.5 0.275,0 3.8524,3.375 7.9499,7.5 4.0975,4.125 7.2249,7.5 6.9499,7.5 -0.275,0 -3.8524,-3.375 -7.9499,-7.5 z m 83.6232,3.69928 c -0.3095,-0.5007 0.5976,-0.68856 2.0158,-0.41747 2.3487,0.44898 2.4791,0.30742 1.4643,-1.58876 -0.6127,-1.14492 -1.5616,-2.35828 -2.1087,-2.69637 -0.547,-0.33809 -0.9825,-2.95066 -0.9677,-5.8057 l 0.027,-5.19098 2.9462,3.5 c 1.6204,1.925 3.0495,4.175 3.1758,5 0.1263,0.825 0.5033,-4.125 0.8379,-11 l 0.6083,-12.5 -0.061,15.5 -0.061,15.5 -3.6571,0.30483 c -2.0114,0.16765 -3.9103,-0.10484 -4.2197,-0.60555 z m 68.1268,0.13844 c 0.6875,-0.27741 1.8125,-0.27741 2.5,0 0.6875,0.27741 0.125,0.50439 -1.25,0.50439 -1.375,0 -1.9375,-0.22698 -1.25,-0.50439 z m -139.8257,-3.08772 -2.4243,-2.75 2.75,2.42431 c 1.5125,1.33338 2.75,2.57088 2.75,2.75 0,0.78428 -0.8098,0.14598 -3.0757,-2.42431 z m 99.8135,2.05832 c -0.9693,-0.25283 -1.5052,-0.87563 -1.191,-1.384 0.3142,-0.50838 0.02,-0.92432 -0.6544,-0.92432 -0.6742,0 -0.9544,-0.27129 -0.6229,-0.60286 0.3316,-0.33157 -0.5152,-1.56907 -1.8816,-2.75 -1.3665,-1.18093 -2.5562,-3.12847 -2.6438,-4.32786 -0.088,-1.1994 -0.5242,-1.95516 -0.9703,-1.67948 -0.4461,0.27569 -1.4417,-0.99299 -2.2126,-2.81928 l -1.4015,-3.32052 -0.4118,4 c -0.2264,2.2 -0.467,0.4 -0.5347,-4 -0.076,-4.91437 0.4068,-9.15711 1.2507,-11 0.7873,-1.71933 1.4083,-2.30521 1.4549,-1.37245 0.045,0.89516 0.7035,2.14406 1.4642,2.77533 0.8901,0.73869 1.6364,4.52791 2.094,10.63159 0.8336,11.11856 1.8956,12.44633 9.9955,12.49695 4.1737,0.0261 5.3326,0.45065 6.8242,2.5 l 1.7967,2.46858 -5.2967,-0.116 c -2.9132,-0.0638 -6.0897,-0.32286 -7.0589,-0.57568 z m 35.2622,0.31412 c 0,-0.20765 0.7875,-0.99515 1.75,-1.75 1.5861,-1.24387 1.6214,-1.2085 0.3776,0.37756 -1.3064,1.66575 -2.1276,2.19548 -2.1276,1.37244 z m 7.3102,-1.37244 c -2.9478,-2.58483 -2.4468,-4.73179 2.0911,-8.9598 2.2374,-2.08461 3.7311,-3.3714 3.3193,-2.85953 -0.4117,0.51186 0.4952,2.26896 2.0154,3.90466 1.5202,1.6357 2.2572,2.68728 1.6378,2.33686 -0.6319,-0.35753 -2.3372,1.11055 -3.8859,3.34534 -1.518,2.19036 -2.8549,3.98247 -2.9709,3.98247 -0.116,0 -1.1091,-0.7875 -2.2068,-1.75 z m -224.1666,-5.03386 c -6.4159,-7.10357 -7.4092,-13.06623 -3.0909,-18.55596 3.1068,-3.94967 14.1312,-13.12705 13.9119,-11.58111 -0.464,3.2706 0.061,5.02363 1.2854,4.29191 0.6875,-0.41087 -1.3375,2.21922 -4.5,5.84467 -3.4291,3.93112 -5.75,7.52173 -5.75,8.89587 0,1.30634 1.5972,3.93988 3.6884,6.08137 l 3.6883,3.77722 -2.3627,2.51494 c -1.2994,1.38322 -2.6217,2.49971 -2.9383,2.48109 -0.3166,-0.0186 -2.0861,-1.70612 -3.9321,-3.75 z m 84.8564,-4.71614 c 1.8658,-1.925 3.6173,-3.5 3.8923,-3.5 0.275,0 -1.0265,1.575 -2.8923,3.5 -1.8658,1.925 -3.6173,3.5 -3.8923,3.5 -0.275,0 1.0265,-1.575 2.8923,-3.5 z m 123.3652,-7 c 0,-5.5 0.1706,-7.62242 0.3732,-4.71648 0.2026,2.90594 0.2005,7.40594 0,10 -0.205,2.59406 -0.3708,0.21648 -0.3682,-5.28352 z m -148.4928,4.75 c -1.2438,-1.58606 -1.2085,-1.62143 0.3776,-0.37756 0.9625,0.75485 1.75,1.54235 1.75,1.75 0,0.82304 -0.8212,0.29331 -2.1276,-1.37244 z m -6.8724,-6.75 c -2.429,-2.475 -4.1914,-4.5 -3.9164,-4.5 0.275,0 2.4874,2.025 4.9164,4.5 2.429,2.475 4.1914,4.5 3.9164,4.5 -0.275,0 -2.4874,-2.025 -4.9164,-4.5 z m 189,2.12244 c 0,-0.20765 0.7875,-0.99515 1.75,-1.75 1.5861,-1.24387 1.6214,-1.2085 0.3776,0.37756 -1.3064,1.66575 -2.1276,2.19548 -2.1276,1.37244 z m -165.9659,-15.08824 c -6.8397,-6.85618 -12.6427,-12.25894 -12.8955,-12.00613 -0.2528,0.25282 0.2191,1.24993 1.0488,2.2158 4.8876,5.69028 1.8002,3.4955 -6.3216,-4.49387 -9.9302,-9.7682 -12.3408,-10.8836 -16.209,-7.5 -1.1003,0.9625 -1.6954,1.22593 -1.3225,0.58541 0.373,-0.64052 0.1922,-1.32657 -0.4017,-1.52454 -1.7504,-0.58348 3.7713,-5.81087 6.138,-5.81087 1.4795,0 8.7065,6.49278 22.7978,20.48165 11.3474,11.26491 20.3999,20.48991 20.1166,20.5 -0.2833,0.0101 -6.1112,-5.59126 -12.9509,-12.44745 z m 169.9659,10.08824 c 0,-0.20765 0.7875,-0.99515 1.75,-1.75 1.5861,-1.24387 1.6214,-1.2085 0.3776,0.37756 -1.3064,1.66575 -2.1276,2.19548 -2.1276,1.37244 z"
         style="fill:#136da3" />
      <path
         inkscape:connector-curvature="0"
         id="path12696"
         d="m 1226.5694,294.38531 c -1.8279,-0.6093 -1.5769,-9.16029 0.2899,-9.87665 4.6735,-1.79339 8.9667,3.02604 6.6131,7.42372 -1.0502,1.9624 -4.5954,3.22214 -6.903,2.45293 z m 5.6178,-4.62891 c 0.3234,-2.83285 -1.0243,-4.56189 -3.5801,-4.5932 -0.7977,-0.01 -1.25,1.4571 -1.25,4.05424 0,3.64829 0.2329,4.03647 2.25,3.75 1.6428,-0.23331 2.3391,-1.09988 2.5801,-3.21104 z m 5.4199,4.66085 c -0.7744,-0.27014 -1.25,-2.33186 -1.25,-5.41912 0,-4.84613 0.076,-4.97439 2.75,-4.66666 2.1823,0.2511 2.75,0.83252 2.75,2.81642 0,1.375 0.3078,2.97149 0.684,3.54775 1.3148,2.01397 -2.2092,4.67207 -4.934,3.72161 z m 3.75,-2.68603 c 0,-0.77916 -0.5625,-1.6449 -1.25,-1.92387 -0.9667,-0.39224 -0.9377,-0.72576 0.1281,-1.47153 1.5511,-1.08533 0.6931,-3.18793 -1.3007,-3.18793 -0.8554,0 -1.3047,1.37735 -1.3047,4 0,3.23577 0.3561,4 1.8637,4 1.025,0 1.8636,-0.6375 1.8636,-1.41667 z m 5,1.41667 c -2.4912,-2.49115 -2.554,-5.18862 -0.1713,-7.34501 3.6577,-3.31012 7.1713,-1.34547 7.1713,4.00983 0,2.20437 -0.6283,3.60105 -1.9343,4.3 -2.5803,1.38095 -2.7528,1.3481 -5.0657,-0.96482 z m 5.8006,-3.0856 c 0.3404,-2.92887 -2.0131,-5.43055 -4.2879,-4.55766 -1.5388,0.5905 -2.1239,5.69876 -0.8038,7.01878 1.6164,1.61642 4.7963,0.0794 5.0917,-2.46112 z m 5.3142,3.45346 c -2.4938,-1.74673 -2.7609,-5.57892 -0.5434,-7.79643 3.1835,-3.18342 7.441,-1.24303 7.4133,3.37857 -0.028,4.73032 -3.3626,6.87446 -6.8699,4.41786 z m 5.4778,-2.88085 c 0.6845,-2.72706 -0.9489,-5.48701 -3.2473,-5.48701 -1.9103,0 -3.3363,4.06612 -2.1919,6.25 1.3925,2.65744 4.6971,2.19388 5.4392,-0.76299 z m -205.3427,0.57904 c -2.2276,-1.61367 -4.4065,-3.52617 -4.842,-4.25 -0.6128,-1.01855 -0.4093,-1.0058 0.9001,0.0564 0.9306,0.75485 1.692,0.97985 1.6919,0.5 0,-0.9397 21.5751,-1.13073 22.5066,-0.19927 0.3084,0.30837 -1.0451,1.97055 -3.0077,3.69375 -4.9436,4.34056 -11.4285,4.41543 -17.2489,0.19913 z m 137.986,-2.06605 c -0.025,-3.72216 0.1869,-4.69189 0.6548,-3 0.4245,1.53518 1.5438,2.62332 2.9003,2.81955 1.7884,0.25872 2.209,-0.16964 2.209,-2.25 0,-1.41325 0.45,-2.56955 1,-2.56955 0.55,0 1,2.25 1,5 0,2.75 -0.45,5 -1,5 -0.55,0 -1,-0.9 -1,-2 0,-2.99308 -4.7125,-2.77055 -5.2943,0.25 -0.2383,1.2375 -0.4498,-0.225 -0.4698,-3.25 z m 10.3952,2.5 c 1.0458,-4.74104 2.2414,-7.5 3.2501,-7.5 0.512,0 1.6481,2.10516 2.5248,4.67814 1.8837,5.52827 1.8606,5.32186 0.594,5.32186 -0.55,0 -1,-0.675 -1,-1.5 0,-2.05205 -2.971,-1.8925 -4.6551,0.25 -1.2275,1.56156 -1.3043,1.42697 -0.7138,-1.25 z m 4.3689,-2.94098 c 0,-2.31222 -1.7236,-2.72402 -2.2927,-0.54777 -0.337,1.2888 -0.025,1.98875 0.8863,1.98875 0.7735,0 1.4064,-0.64844 1.4064,-1.44098 z m 5.1419,0.69098 c -0.1651,-6.10746 1.1688,-6.76327 3.5595,-1.75 2.1407,4.48916 3.0813,4.42329 3.5701,-0.25 0.3227,-3.08499 0.4221,-2.81899 0.5604,1.5 0.092,2.8875 -0.2452,5.25 -0.7503,5.25 -0.5052,0 -1.9677,-1.6875 -3.25,-3.75 l -2.3316,-3.75 -0.6081,4 c -0.5952,3.91494 -0.6111,3.88836 -0.75,-1.25 z m 50.8581,-0.25 c 0,-2.75 0.45,-5 1,-5 0.55,0 1,0.97844 1,2.17431 0,2.17068 0.01,2.17026 2.6993,-0.25 l 2.6992,-2.42431 -1.6453,2.63257 c -1.4302,2.28829 -1.4605,2.87679 -0.2311,4.5 2.1148,2.79233 1.7042,4.21846 -0.4657,1.61743 -2.3147,-2.77466 -3.0564,-2.83533 -3.0564,-0.25 0,1.1 -0.45,2 -1,2 -0.55,0 -1,-2.25 -1,-5 z M 1074.0749,278.8439 c 0.6258,-3.27368 4.7758,-7.3244 5.8023,-5.66348 0.4327,0.70015 -0.7011,2.61516 -2.7782,4.69224 -3.3816,3.38158 -3.4916,3.41693 -3.0241,0.97124 z m -25.0145,-3.16459 c 0.9882,-1.35771 2.2126,-2.48271 2.721,-2.5 0.5084,-0.0173 -0.1326,1.09358 -1.4243,2.46858 -2.998,3.19125 -3.6072,3.20601 -1.2967,0.0314 z m 151.6453,0.81884 c 1.4442,-0.41787 1.7616,-1.28045 1.4508,-3.94258 -0.2188,-1.87422 -0.011,-3.40768 0.4618,-3.40768 0.4727,0 0.7199,1.68376 0.5492,3.74168 -0.2395,2.88709 -0.7672,3.78757 -2.3104,3.94259 -1.7401,0.17478 -1.7597,0.13137 -0.1514,-0.33401 z m 45.5423,-0.55646 c 0.7047,-0.9384 0.9515,-2.2884 0.5485,-3 -0.5901,-1.04189 -0.4692,-1.04903 0.621,-0.0367 1.1311,1.05024 1.0408,1.544 -0.5485,3 -1.7128,1.56917 -1.7747,1.57282 -0.621,0.0367 z m -116.3195,-2.36523 c -0.8643,-0.86428 -1.5577,-2.10178 -1.541,-2.75 0.017,-0.64821 0.4811,-0.40541 1.0319,0.53957 0.5508,0.94498 1.7746,2.16879 2.7196,2.71959 0.9449,0.5508 1.1877,1.01514 0.5395,1.03186 -0.6482,0.0167 -1.8857,-0.67673 -2.75,-1.54102 z m 6.6286,0.37143 c -1.4559,-1.45592 -1.5548,-3.46271 -0.2114,-4.29292 0.5685,-0.35141 0.7334,0.0538 0.3881,0.95372 -0.3303,0.86057 -0.045,2.23394 0.6339,3.05193 1.4763,1.77892 0.8892,1.98702 -0.8106,0.28727 z m 17.05,0.53772 c -1.5705,-0.63373 -1.6353,-3.98153 -0.095,-4.93321 0.7153,-0.44208 0.8831,-0.27432 0.441,0.44098 -0.4271,0.69098 -0.064,1.15451 0.9045,1.15451 0.9684,0 1.3316,-0.46353 0.9045,-1.15451 -0.4421,-0.7153 -0.2743,-0.88306 0.441,-0.44098 1.8648,1.15249 1.3266,2.59549 -0.9679,2.59549 -1.7733,0 -1.9177,0.2468 -0.8776,1.5 1.3118,1.58065 1.2533,1.64605 -0.75,0.83772 z m 12.2661,-0.58772 c -0.9272,-2.75245 -0.9682,-4.60922 -0.098,-4.43442 0.5051,0.10143 0.9551,1.42195 1,2.93449 0.088,2.96323 -0.2308,3.4931 -0.9022,1.49993 z m 14.9301,0.16287 c -0.3696,-0.59793 -0.2676,-1.4915 0.2266,-1.98572 0.5315,-0.53144 0.8986,-0.0873 0.8986,1.08714 0,2.27223 -0.185,2.41996 -1.1252,0.89858 z m 61.5607,-0.42123 c 1.075,-1.2952 0.9736,-1.80806 -0.6085,-3.07806 -1.7999,-1.44487 -1.7817,-1.46736 0.3516,-0.43356 2.6374,1.27808 2.9475,3.53835 0.6086,4.43588 -1.3856,0.53168 -1.4404,0.38759 -0.3517,-0.92426 z m 14.5092,0.25836 c -0.9272,-2.75245 -0.9682,-4.60922 -0.098,-4.43442 0.5051,0.10143 0.9551,1.42195 1,2.93449 0.088,2.96323 -0.2308,3.4931 -0.9022,1.49993 z m 3.7339,0.58772 c -1.5705,-0.63373 -1.6353,-3.98152 -0.095,-4.93321 0.7153,-0.44208 0.8831,-0.27432 0.441,0.44098 -0.4271,0.69098 -0.064,1.15451 0.9045,1.15451 0.9684,0 1.3316,-0.46353 0.9045,-1.15451 -0.4421,-0.7153 -0.2743,-0.88306 0.441,-0.44098 1.8648,1.15249 1.3266,2.59549 -0.9679,2.59549 -1.7733,0 -1.9177,0.2468 -0.8776,1.5 1.3118,1.58065 1.2533,1.64605 -0.75,0.83772 z m -118.055,-2.83772 c 0.02,-1.65 0.2445,-2.20394 0.498,-1.23097 0.2535,0.97297 0.2369,2.32297 -0.037,3 -0.2739,0.67703 -0.4813,-0.11903 -0.4609,-1.76903 z m 3.884,0.83333 c -0.043,-1.19166 -0.6415,-2.39364 -1.329,-2.67105 -0.9791,-0.39506 -0.9723,-0.5215 0.031,-0.58333 1.5179,-0.0935 2.6218,2.321 1.8919,4.13806 -0.2835,0.70564 -0.5509,0.30799 -0.5943,-0.88368 z m 12.116,-0.83333 c 0.02,-1.65 0.2445,-2.20394 0.498,-1.23097 0.2535,0.97297 0.2369,2.32297 -0.037,3 -0.2739,0.67703 -0.4813,-0.11903 -0.4609,-1.76903 z m 3.884,0.83333 c -0.043,-1.19166 -0.6415,-2.39364 -1.329,-2.67105 -0.9791,-0.39506 -0.9723,-0.5215 0.031,-0.58333 1.5179,-0.0935 2.6218,2.321 1.8919,4.13806 -0.2835,0.70564 -0.5509,0.30799 -0.5943,-0.88368 z m 9.0393,-1.58333 c -0.1333,-4.22504 1.5139,-5.0635 2.4693,-1.25691 0.3442,1.3712 1.0277,2.24464 1.5191,1.94098 0.4913,-0.30366 0.8933,-0.1021 0.8933,0.4479 0,2.39164 -2.0076,1.94835 -2.6769,-0.59107 l -0.7355,-2.7909 -0.6755,3 c -0.6599,2.93088 -0.6782,2.9136 -0.7938,-0.75 z m 7.0179,0.94098 c -0.076,-1.56968 -0.5723,-2.53946 -1.1247,-2.19806 -0.5809,0.359 -0.7257,-0.0742 -0.351,-1.05044 0.5889,-1.53469 0.7074,-1.53646 1.5543,-0.0232 0.5042,0.90102 0.7234,2.63777 0.4872,3.85946 -0.3539,1.82982 -0.4536,1.72625 -0.5658,-0.58778 z m 8,-0.0105 c -0.1151,-2.3829 0.2123,-2.77006 2.1138,-2.5 1.5257,0.21668 2.2928,1.04881 2.383,2.58488 0.1107,1.8844 0.057,1.92644 -0.3195,0.25 -0.6111,-2.72118 -3.0692,-2.56128 -3.6078,0.23467 -0.3625,1.88201 -0.4556,1.78885 -0.5695,-0.56955 z m 9.2638,-0.11586 c 0,-1.33948 0.36,-2.21292 0.8,-1.94098 0.44,0.27193 0.8,1.36787 0.8,2.43541 0,1.06754 -0.36,1.94098 -0.8,1.94098 -0.44,0 -0.8,-1.09593 -0.8,-2.43541 z m 2.9358,0.86819 c -0.3307,-0.86197 -0.2041,-1.96447 0.2814,-2.45 0.5104,-0.51037 0.8828,0.15076 0.8828,1.56722 0,2.83891 -0.3203,3.08181 -1.1642,0.88278 z m 6.6795,-0.12376 c -0.01,-1.20504 0.5042,-2.51207 1.1392,-2.90451 0.7153,-0.44208 0.8831,-0.27432 0.441,0.44098 -0.4349,0.70361 -0.01,1.18534 1.0955,1.23346 1.4075,0.0614 1.4761,0.20566 0.309,0.64994 -0.825,0.31405 -1.8306,1.06602 -2.2347,1.67105 -0.4252,0.63671 -0.7411,0.1772 -0.75,-1.09092 z m 6.1797,-0.80902 c 0.02,-1.65 0.2445,-2.20394 0.498,-1.23097 0.2535,0.97297 0.2369,2.32297 -0.037,3 -0.2739,0.67703 -0.4813,-0.11903 -0.4609,-1.76903 z m 6.884,0.68261 c -0.062,-1.8147 -0.4946,-2.18548 -1.9948,-1.70932 -1.0538,0.33443 -2.1705,0.19601 -2.4818,-0.30761 -0.3113,-0.50363 0.5866,-0.91568 1.9952,-0.91568 2.6431,0 3.9777,1.72143 3.0757,3.96701 -0.2835,0.70564 -0.5509,0.24017 -0.5943,-1.0344 z m 2.5877,1.15072 c -1.2798,-1.27977 -0.6511,-2.33333 1.3923,-2.33333 1.3018,0 1.7966,-0.42461 1.3455,-1.15451 -0.4421,-0.7153 -0.2743,-0.88306 0.441,-0.44098 1.8441,1.13972 1.3368,2.59549 -0.9045,2.59549 -1.1325,0 -1.7809,0.45 -1.441,1 0.6995,1.13178 0.1749,1.34159 -0.8333,0.33333 z m 6.5283,-1.83333 c 0.02,-1.65 0.2445,-2.20394 0.498,-1.23097 0.2535,0.97297 0.2369,2.32297 -0.037,3 -0.2739,0.67703 -0.4813,-0.11903 -0.4609,-1.76903 z m 6.4717,1.83333 c -0.3667,-0.36666 -0.6667,-1.79166 -0.6667,-3.16666 0,-3.1897 1.3114,-1.98301 1.4569,1.34056 0.1217,2.78076 0.1346,2.75098 -0.7902,1.8261 z m 18.5833,-0.89198 c -0.6875,-0.74632 -1.25,-1.92606 -1.25,-2.62165 0,-0.69559 0.7209,-0.23548 1.602,1.02246 1.8038,2.57526 1.5614,3.6763 -0.352,1.59919 z m 12.8862,-0.62867 c -0.1267,-2.49968 0.1431,-2.68347 3.8638,-2.63212 3.6752,0.0507 3.9889,0.26891 3.8638,2.68732 -0.1219,2.3555 -0.1817,2.39565 -0.5695,0.38212 -0.2384,-1.2375 -0.8208,-2.25 -1.2943,-2.25 -0.4735,0 -1.0559,1.0125 -1.2943,2.25 l -0.4333,2.25 -0.1362,-2.25 c -0.075,-1.2375 -0.7799,-2.25 -1.5667,-2.25 -0.7867,0 -1.6254,1.0125 -1.8638,2.25 -0.38,1.97329 -0.4501,1.9195 -0.5695,-0.43732 z m -82.0572,-1.39601 c 0.048,-1.16495 0.2849,-1.4019 0.6041,-0.60417 0.2889,0.72187 0.2534,1.58437 -0.079,1.91667 -0.3323,0.33229 -0.5686,-0.25834 -0.5252,-1.3125 z m 46.421,-0.41667 c -0.3399,-0.55 -0.1415,-1 0.441,-1 0.5824,0 1.059,0.45 1.059,1 0,0.55 -0.1984,1 -0.441,1 -0.2425,0 -0.7191,-0.45 -1.059,-1 z m -80.9899,-1.01631 c 0.3454,-0.55897 1.047,-0.75742 1.559,-0.44099 1.387,0.85724 1.1284,1.4573 -0.6281,1.4573 -0.8575,0 -1.2764,-0.45734 -0.9309,-1.01631 z m 25.4899,-10.54271 c 0,-2.78087 1.3602,-2.5049 3.0298,0.61471 0.8722,1.6297 0.7113,1.94431 -0.9946,1.94431 -1.5167,0 -2.0352,-0.65192 -2.0352,-2.55902 z m 21,0.80747 c -4.0925,-2.04442 -5.7631,-6.04403 -5.1611,-12.35622 l 0.4027,-4.2229 1.3606,3.23586 c 0.7483,1.77972 1.7255,3.0103 2.1716,2.73461 0.4461,-0.27568 0.8827,0.48008 0.9703,1.67948 0.088,1.19939 1.2773,3.14693 2.6438,4.32786 1.3664,1.18093 2.2132,2.41843 1.8816,2.75 -0.3315,0.33157 -0.051,0.60286 0.6229,0.60286 0.6741,0 0.9686,0.41594 0.6544,0.92432 -0.3142,0.50837 0.2217,1.13117 1.191,1.384 1.2087,0.3153 0.977,0.49562 -0.7378,0.57412 -1.375,0.063 -4.075,-0.67235 -6,-1.63399 z m 45,-1.24845 c 1.9796,-2.78011 3.9365,-4.32437 2.4672,-1.94693 -0.358,0.57919 0.3593,1.92919 1.594,3 l 2.2448,1.94693 -4.2211,0 -4.2211,0 2.1362,-3 z m -14.3027,0.0284 c 0.6586,-0.86326 1.6426,-2.68532 2.1867,-4.04901 0.6578,-1.64877 1.0105,-1.91183 1.0526,-0.7852 0.035,0.93183 -0.9491,2.75388 -2.1866,4.04901 -1.2375,1.29512 -1.7112,1.64846 -1.0527,0.7852 z m -198.7858,-2.43426 c 1.2431,-1.3232 3.234,-2.65147 4.4243,-2.95172 1.7867,-0.45068 1.5946,-0.0311 -1.1016,2.40582 -3.9105,3.53447 -6.5355,3.96573 -3.3227,0.5459 z m 74.1447,-0.20032 -3.0972,-2.60613 3.5205,-3.89675 c 1.9363,-2.14321 3.5205,-4.85607 3.5205,-6.02857 0,-1.32143 -3.3363,-5.59693 -8.7765,-11.24712 -4.8271,-5.01342 -10.2835,-11.3653 -12.1254,-14.1153 -2.5532,-3.81207 0.1259,-1.53881 11.2765,9.56809 8.044,8.01245 14.6254,15.11001 14.6254,15.77235 0,0.66233 -1.8678,3.23054 -4.1506,5.70713 l -4.1506,4.50288 2.3249,2.47478 c 3.0736,3.27172 0.966,3.17843 -2.9675,-0.13136 z m 167.9438,-20.77143 c 0,-0.20765 0.7875,-0.99515 1.75,-1.75 1.5861,-1.24387 1.6214,-1.2085 0.3776,0.37756 -1.3064,1.66575 -2.1276,2.19548 -2.1276,1.37244 z m -41,-2.98758 c 0,-0.75083 -0.944,-2.66333 -2.0977,-4.25 l -2.0978,-2.88486 2.5978,2.80576 c 2.2977,2.48179 3.4812,5.69424 2.0977,5.69424 -0.275,0 -0.5,-0.61431 -0.5,-1.36514 z m 45.0799,-2.38486 c 1.2016,-1.92949 1.2016,-2.57051 0,-4.5 -1.2826,-2.0595 -1.2606,-2.1338 0.2594,-0.87756 0.9134,0.75485 1.6607,2.16225 1.6607,3.12756 0,0.96531 -0.7473,2.37271 -1.6607,3.12755 -1.52,1.25625 -1.542,1.18195 -0.2594,-0.87755 z m 6.6753,-9.75 c -0.2989,-1.5641 -0.02,-2.5 0.7448,-2.5 0.7649,0 1.0438,0.9359 0.7448,2.5 -0.2629,1.375 -0.598,2.5 -0.7448,2.5 -0.1468,0 -0.4819,-1.125 -0.7448,-2.5 z m 5.2448,1.05902 c 0,-0.85746 0.45,-1.55902 1,-1.55902 0.55,0 1,0.42344 1,0.94098 0,0.51754 -0.45,1.2191 -1,1.55902 -0.55,0.33992 -1,-0.0835 -1,-0.94098 z m 3.116,0.77277 c -0.064,-0.64252 -0.4072,-1.99252 -0.7632,-3 -0.5021,-1.42127 -0.369,-1.57546 0.5938,-0.68801 0.6825,0.62908 1.026,1.97908 0.7632,3 -0.2628,1.02092 -0.53,1.33052 -0.5938,0.68801 z m -5.1007,-2.08179 c -0.01,-1.2375 0.4347,-2.25 0.9847,-2.25 1.2529,0 1.2529,1.06124 0,3 -0.7839,1.21296 -0.9723,1.06944 -0.9847,-0.75 z"
         style="fill:#405665" />
    </g>
  </g>
</svg>
