<?xml version="1.0" encoding="UTF-8" standalone="no"?>
<!-- Created with Inkscape (http://www.inkscape.org/) -->

<svg
   xmlns:dc="http://purl.org/dc/elements/1.1/"
   xmlns:cc="http://creativecommons.org/ns#"
   xmlns:rdf="http://www.w3.org/1999/02/22-rdf-syntax-ns#"
   xmlns:svg="http://www.w3.org/2000/svg"
   xmlns="http://www.w3.org/2000/svg"
   xmlns:xlink="http://www.w3.org/1999/xlink"
   xmlns:sodipodi="http://sodipodi.sourceforge.net/DTD/sodipodi-0.dtd"
   xmlns:inkscape="http://www.inkscape.org/namespaces/inkscape"
   height="128"
   id="svg2"
   version="1.0"
   width="128"
   x="0.00000000"
   y="0.00000000"
   inkscape:version="0.48.1 r9760"
   sodipodi:docname="autobaz.svg"
   inkscape:export-filename="/media/work/webserver/proba/plugins/timetable/theme/icon_128.png"
   inkscape:export-xdpi="90"
   inkscape:export-ydpi="90">
  <sodipodi:namedview
     pagecolor="#ffffff"
     bordercolor="#666666"
     borderopacity="1"
     objecttolerance="10"
     gridtolerance="10"
     guidetolerance="10"
     inkscape:pageopacity="0"
     inkscape:pageshadow="2"
     inkscape:window-width="1280"
     inkscape:window-height="744"
     id="namedview106"
     showgrid="false"
     inkscape:zoom="4.3941486"
     inkscape:cx="61.520143"
     inkscape:cy="56.82685"
     inkscape:window-x="-3"
     inkscape:window-y="-4"
     inkscape:window-maximized="1"
     inkscape:current-layer="layer1" />
  <metadata
     id="metadata3">
    <rdf:RDF>
      <cc:Work
         rdf:about="">
        <dc:title></dc:title>
        <dc:description>bus bw</dc:description>
        <dc:subject>
          <rdf:Bag>
            <rdf:li>transport</rdf:li>
            <rdf:li>bus</rdf:li>
          </rdf:Bag>
        </dc:subject>
        <dc:publisher>
          <cc:Agent
             rdf:about="http://www.openclipart.org/">
            <dc:title>Open Clip Art Library</dc:title>
          </cc:Agent>
        </dc:publisher>
        <dc:creator>
          <cc:Agent>
            <dc:title>Jarno Vasamaa</dc:title>
          </cc:Agent>
        </dc:creator>
        <dc:rights>
          <cc:Agent>
            <dc:title>Jarno Vasamaa</dc:title>
          </cc:Agent>
        </dc:rights>
        <dc:date />
        <dc:format>image/svg+xml</dc:format>
        <dc:type
           rdf:resource="http://purl.org/dc/dcmitype/StillImage" />
        <cc:license
           rdf:resource="http://web.resource.org/cc/PublicDomain" />
        <dc:language>en</dc:language>
      </cc:Work>
      <cc:License
         rdf:about="http://web.resource.org/cc/PublicDomain">
        <cc:permits
           rdf:resource="http://web.resource.org/cc/Reproduction" />
        <cc:permits
           rdf:resource="http://web.resource.org/cc/Distribution" />
        <cc:permits
           rdf:resource="http://web.resource.org/cc/DerivativeWorks" />
      </cc:License>
    </rdf:RDF>
  </metadata>
  <defs
     id="defs3">
    <linearGradient
       id="linearGradient2493">
      <stop
         id="stop2495"
         offset="0.00000000"
         style="stop-color:#000000;stop-opacity:1.0000000;" />
      <stop
         id="stop2497"
         offset="1.0000000"
         style="stop-color:#000000;stop-opacity:0.00000000;" />
    </linearGradient>
    <linearGradient
       id="linearGradient2483">
      <stop
         id="stop2485"
         offset="0.00000000"
         style="stop-color:#000000;stop-opacity:1.0000000;" />
      <stop
         id="stop2487"
         offset="1.0000000"
         style="stop-color:#000000;stop-opacity:0.00000000;" />
    </linearGradient>
    <linearGradient
       id="linearGradient2461">
      <stop
         id="stop2463"
         offset="0.00000000"
         style="stop-color:#acacac;stop-opacity:1.0000000;" />
      <stop
         id="stop2465"
         offset="0.78260869"
         style="stop-color:#a4a4a4;stop-opacity:1.0000000;" />
      <stop
         id="stop2467"
         offset="1.0000000"
         style="stop-color:#272727;stop-opacity:1.0000000;" />
    </linearGradient>
    <linearGradient
       id="linearGradient2455">
      <stop
         id="stop2457"
         offset="0.00000000"
         style="stop-color:#ffffff;stop-opacity:1.0000000;" />
      <stop
         id="stop2459"
         offset="1.0000000"
         style="stop-color:#565656;stop-opacity:1.0000000;" />
    </linearGradient>
    <linearGradient
       id="linearGradient2287">
      <stop
         id="stop2289"
         offset="0.00000000"
         style="stop-color:#000000;stop-opacity:1.0000000;" />
      <stop
         id="stop2291"
         offset="1.0000000"
         style="stop-color:#000000;stop-opacity:0.00000000;" />
    </linearGradient>
    <linearGradient
       id="linearGradient2260">
      <stop
         id="stop2262"
         offset="0.00000000"
         style="stop-color:#000000;stop-opacity:1.0000000;" />
      <stop
         id="stop2268"
         offset="0.26086956"
         style="stop-color:#000000;stop-opacity:0.82653064;" />
      <stop
         id="stop2264"
         offset="1.0000000"
         style="stop-color:#000000;stop-opacity:0.00000000;" />
    </linearGradient>
    <linearGradient
       id="linearGradient2230">
      <stop
         id="stop2232"
         offset="0.00000000"
         style="stop-color:#000000;stop-opacity:1.0000000;" />
      <stop
         id="stop2234"
         offset="1.0000000"
         style="stop-color:#000000;stop-opacity:0.00000000;" />
    </linearGradient>
    <linearGradient
       id="linearGradient2206">
      <stop
         id="stop2208"
         offset="0.00000000"
         style="stop-color:#000000;stop-opacity:1.0000000;" />
      <stop
         id="stop2214"
         offset="0.21739130"
         style="stop-color:#000000;stop-opacity:0.65306121;" />
      <stop
         id="stop2210"
         offset="1.0000000"
         style="stop-color:#000000;stop-opacity:0.12244898;" />
    </linearGradient>
    <linearGradient
       id="linearGradient2165">
      <stop
         id="stop2167"
         offset="0.00000000"
         style="stop-color:#8aa1c1;stop-opacity:1.0000000;" />
      <stop
         id="stop2173"
         offset="0.78260869"
         style="stop-color:#5b97b6;stop-opacity:1.0000000;" />
      <stop
         id="stop2169"
         offset="1.0000000"
         style="stop-color:#0a244e;stop-opacity:1.0000000;" />
    </linearGradient>
    <linearGradient
       id="linearGradient2123">
      <stop
         id="stop2125"
         offset="0.00000000"
         style="stop-color:#ff0000;stop-opacity:1.0000000;" />
      <stop
         id="stop2127"
         offset="1.0000000"
         style="stop-color:#870000;stop-opacity:1.0000000;" />
    </linearGradient>
    <linearGradient
       gradientTransform="scale(1.426911,0.700815)"
       gradientUnits="userSpaceOnUse"
       id="linearGradient2129"
       x1="457.62128"
       x2="138.54677"
       xlink:href="#linearGradient2123"
       y1="482.33862"
       y2="500.99878" />
    <radialGradient
       cx="538.37347"
       cy="370.4108"
       fx="538.37347"
       fy="370.4108"
       gradientTransform="scale(0.796117,1.256096)"
       gradientUnits="userSpaceOnUse"
       id="radialGradient2171"
       r="16.065519"
       xlink:href="#linearGradient2165" />
    <radialGradient
       cx="342.16782"
       cy="308.37048"
       fx="342.16782"
       fy="308.37048"
       gradientTransform="scale(0.692668,1.443694)"
       gradientUnits="userSpaceOnUse"
       id="radialGradient2197"
       r="10.218515"
       xlink:href="#linearGradient2165" />
    <linearGradient
       gradientTransform="matrix(2.298021,-0.148861,0.02807078,0.433339,-28.35352,22.54962)"
       gradientUnits="userSpaceOnUse"
       id="linearGradient2216"
       x1="187.69011"
       x2="105.74668"
       xlink:href="#linearGradient2206"
       y1="1013.2661"
       y2="1210.4857" />
    <linearGradient
       gradientTransform="scale(2.584119,0.386979)"
       gradientUnits="userSpaceOnUse"
       id="linearGradient2226"
       x1="193.95979"
       x2="115.402"
       xlink:href="#linearGradient2206"
       y1="1031.6619"
       y2="1585.5297" />
    <radialGradient
       cx="127.06819"
       cy="949.78925"
       fx="127.06819"
       fy="949.78925"
       gradientTransform="scale(2.039924,0.490214)"
       gradientUnits="userSpaceOnUse"
       id="radialGradient2236"
       r="35.868263"
       xlink:href="#linearGradient2230" />
    <radialGradient
       cx="127.06819"
       cy="949.78925"
       fx="127.06819"
       fy="949.78925"
       gradientTransform="scale(2.039924,0.490214)"
       gradientUnits="userSpaceOnUse"
       id="radialGradient2240"
       r="35.868263"
       xlink:href="#linearGradient2230" />
    <radialGradient
       cx="127.06819"
       cy="949.78925"
       fx="127.06819"
       fy="949.78925"
       gradientTransform="scale(2.039924,0.490214)"
       gradientUnits="userSpaceOnUse"
       id="radialGradient2244"
       r="35.868263"
       xlink:href="#linearGradient2230" />
    <radialGradient
       cx="127.06819"
       cy="949.78925"
       fx="127.06819"
       fy="949.78925"
       gradientTransform="scale(2.039924,0.490214)"
       gradientUnits="userSpaceOnUse"
       id="radialGradient2248"
       r="35.868263"
       xlink:href="#linearGradient2230" />
    <radialGradient
       cx="127.06819"
       cy="949.78925"
       fx="127.06819"
       fy="949.78925"
       gradientTransform="scale(2.039924,0.490214)"
       gradientUnits="userSpaceOnUse"
       id="radialGradient2252"
       r="35.868263"
       xlink:href="#linearGradient2230" />
    <radialGradient
       cx="127.06819"
       cy="949.78925"
       fx="127.06819"
       fy="949.78925"
       gradientTransform="scale(2.039924,0.490214)"
       gradientUnits="userSpaceOnUse"
       id="radialGradient2256"
       r="35.868263"
       xlink:href="#linearGradient2230" />
    <radialGradient
       cx="125.72676"
       cy="1178.5233"
       fx="125.72676"
       fy="1178.5233"
       gradientTransform="scale(2.512824,0.397959)"
       gradientUnits="userSpaceOnUse"
       id="radialGradient2266"
       r="49.884411"
       xlink:href="#linearGradient2260" />
    <radialGradient
       cx="125.72676"
       cy="1178.5233"
       fx="125.72676"
       fy="1178.5233"
       gradientTransform="scale(2.512824,0.397959)"
       gradientUnits="userSpaceOnUse"
       id="radialGradient2272"
       r="49.884411"
       xlink:href="#linearGradient2260" />
    <radialGradient
       cx="125.72676"
       cy="1178.5233"
       fx="125.72676"
       fy="1178.5233"
       gradientTransform="scale(2.512824,0.397959)"
       gradientUnits="userSpaceOnUse"
       id="radialGradient2276"
       r="49.884411"
       xlink:href="#linearGradient2260" />
    <radialGradient
       cx="125.72676"
       cy="1178.5233"
       fx="125.72676"
       fy="1178.5233"
       gradientTransform="scale(2.512824,0.397959)"
       gradientUnits="userSpaceOnUse"
       id="radialGradient2280"
       r="49.884411"
       xlink:href="#linearGradient2260" />
    <linearGradient
       gradientTransform="scale(2.843317,0.351702)"
       gradientUnits="userSpaceOnUse"
       id="linearGradient2293"
       x1="137.30666"
       x2="108.8744"
       xlink:href="#linearGradient2287"
       y1="1273.2938"
       y2="1424.0519" />
    <radialGradient
       cx="125.72676"
       cy="1178.5233"
       fx="125.72676"
       fy="1178.5233"
       gradientTransform="matrix(0.62905661,0,0,0.09983832,19.727248,593.05095)"
       gradientUnits="userSpaceOnUse"
       id="radialGradient2352"
       r="49.884411"
       xlink:href="#linearGradient2260" />
    <radialGradient
       cx="125.72676"
       cy="1178.5233"
       fx="125.72676"
       fy="1178.5233"
       gradientTransform="matrix(0.62905661,0,0,0.09983832,-5.8312134,590.77423)"
       gradientUnits="userSpaceOnUse"
       id="radialGradient2354"
       r="49.884411"
       xlink:href="#linearGradient2260" />
    <radialGradient
       cx="125.72676"
       cy="1178.5233"
       fx="125.72676"
       fy="1178.5233"
       gradientTransform="matrix(0.62905661,0,0,0.09983832,-26.277992,587.07452)"
       gradientUnits="userSpaceOnUse"
       id="radialGradient2356"
       r="49.884411"
       xlink:href="#linearGradient2260" />
    <radialGradient
       cx="125.72676"
       cy="1178.5233"
       fx="125.72676"
       fy="1178.5233"
       gradientTransform="matrix(0.62905661,0,0,0.09983832,-46.440782,584.79777)"
       gradientUnits="userSpaceOnUse"
       id="radialGradient2358"
       r="49.884411"
       xlink:href="#linearGradient2260" />
    <linearGradient
       gradientTransform="scale(2.843317,0.351702)"
       gradientUnits="userSpaceOnUse"
       id="linearGradient2360"
       x1="137.30666"
       x2="108.8744"
       xlink:href="#linearGradient2287"
       y1="1273.2938"
       y2="1424.0519" />
    <radialGradient
       cx="125.72676"
       cy="1178.5233"
       fx="125.72676"
       fy="1178.5233"
       gradientTransform="matrix(0.62905661,0,0,0.09983832,-5.8312134,590.77423)"
       gradientUnits="userSpaceOnUse"
       id="radialGradient2362"
       r="49.884411"
       xlink:href="#linearGradient2260" />
    <linearGradient
       gradientTransform="scale(1.426911,0.700815)"
       gradientUnits="userSpaceOnUse"
       id="linearGradient2364"
       x1="457.62128"
       x2="138.54677"
       xlink:href="#linearGradient2123"
       y1="482.33862"
       y2="500.99878" />
    <radialGradient
       cx="538.37347"
       cy="370.4108"
       fx="538.37347"
       fy="370.4108"
       gradientTransform="scale(0.796117,1.256096)"
       gradientUnits="userSpaceOnUse"
       id="radialGradient2366"
       r="16.065519"
       xlink:href="#linearGradient2165" />
    <radialGradient
       cx="342.16782"
       cy="308.37048"
       fx="342.16782"
       fy="308.37048"
       gradientTransform="scale(0.692668,1.443694)"
       gradientUnits="userSpaceOnUse"
       id="radialGradient2368"
       r="10.218515"
       xlink:href="#linearGradient2165" />
    <linearGradient
       gradientTransform="matrix(0.71179176,0,0,0.08823356,-41.329089,585.65157)"
       gradientUnits="userSpaceOnUse"
       id="linearGradient2423"
       x1="137.30666"
       x2="108.8744"
       xlink:href="#linearGradient2287"
       y1="1273.2938"
       y2="1424.0519" />
    <radialGradient
       cx="538.37347"
       cy="370.4108"
       fx="538.37347"
       fy="370.4108"
       gradientTransform="matrix(0.18138937,0,0,0.31512426,-31.978699,585.65161)"
       gradientUnits="userSpaceOnUse"
       id="radialGradient2469"
       r="16.065519"
       xlink:href="#linearGradient2461" />
    <radialGradient
       cx="342.16782"
       cy="308.37048"
       fx="342.16782"
       fy="308.37048"
       gradientTransform="matrix(0.17340149,0,0,0.36218808,-41.4289,585.14985)"
       gradientUnits="userSpaceOnUse"
       id="radialGradient2479"
       r="10.218515"
       xlink:href="#linearGradient2461" />
    <linearGradient
       gradientTransform="scale(1.100239,0.908893)"
       gradientUnits="userSpaceOnUse"
       id="linearGradient2489"
       x1="76.347031"
       x2="159.96521"
       xlink:href="#linearGradient2483"
       y1="52.915436"
       y2="52.915436" />
    <linearGradient
       gradientTransform="scale(1.865476,0.536056)"
       gradientUnits="userSpaceOnUse"
       id="linearGradient2499"
       x1="38.59605"
       x2="131.86984"
       xlink:href="#linearGradient2493"
       y1="169.93456"
       y2="169.93456" />
  </defs>
  <g
     id="layer1"
     transform="translate(0,-616.09448)">
    <path
       d="m 117.24618,665.74943 c 0,0 1.76524,-0.58968 2.52175,-0.16846 0.75654,0.42118 1.76523,0.6739 1.84929,1.51628 0.0842,0.84239 1.00872,0.0844 1.00872,0.0844"
       id="path2374"
       style="fill:none;stroke:#000000;stroke-width:1.15704453;stroke-linecap:butt;stroke-linejoin:miter;stroke-miterlimit:4;stroke-opacity:1"
       inkscape:connector-curvature="0" />
    <rect
       height="14.653277"
       id="rect2372"
       rx="1.2047083"
       ry="3.4210589"
       style="fill:#000000;fill-opacity:1;fill-rule:evenodd;stroke:none"
       transform="matrix(0.99740841,0.07194767,0.07089688,0.99748365,0,0)"
       width="3.8626728"
       x="72.798897"
       y="663.15179" />
    <path
       d="m 130.19662,710.71264 a 31.380119,4.9803707 0 0 1 -62.760228,0 31.380119,4.9803707 0 1 1 62.760228,0 z"
       id="path2274"
       style="opacity:0.37172774;fill:url(#radialGradient2352);fill-opacity:1;fill-rule:evenodd;stroke:none"
       inkscape:connector-curvature="0" />
    <path
       d="m 104.63817,708.43591 a 31.380123,4.9803711 0 0 1 -62.760243,0 31.380123,4.9803711 0 1 1 62.760243,0 z"
       id="path2282"
       style="opacity:0.37172774;fill:url(#radialGradient2354);fill-opacity:1;fill-rule:evenodd;stroke:none"
       inkscape:connector-curvature="0" />
    <path
       d="m 84.191387,704.7362 a 31.38012,4.9803707 0 0 1 -62.76024,0 31.38012,4.9803707 0 1 1 62.76024,0 z"
       id="path2270"
       style="opacity:0.37172774;fill:url(#radialGradient2356);fill-opacity:1;fill-rule:evenodd;stroke:none"
       inkscape:connector-curvature="0" />
    <path
       d="m 64.028599,702.45946 a 31.380121,4.9803707 0 0 1 -62.7602413,0 31.380121,4.9803707 0 1 1 62.7602413,0 z"
       id="path2258"
       style="opacity:0.37172774;fill:url(#radialGradient2358);fill-opacity:1;fill-rule:evenodd;stroke:none"
       inkscape:connector-curvature="0" />
    <path
       d="m 17.089291,703.32066 8.80347,-3.69971 76.959389,6.83023 c 0,0 -18.174909,5.12267 -26.694404,4.83808 -8.519487,-0.2846 -29.250244,-4.26889 -37.201769,-5.40727 -7.951519,-1.13837 -32.9420234,-1.42297 -30.1021963,-1.99215 2.8398293,-0.56918 8.2355103,-0.56918 8.2355103,-0.56918 z"
       id="path2284"
       style="fill:url(#linearGradient2423);fill-opacity:1;fill-rule:evenodd;stroke:none"
       inkscape:connector-curvature="0" />
    <path
       d="m 104.63817,708.43591 a 31.380123,4.9803711 0 0 1 -62.760243,0 31.380123,4.9803711 0 1 1 62.760243,0 z"
       id="path2278"
       style="opacity:0.37172774;fill:url(#radialGradient2362);fill-opacity:1;fill-rule:evenodd;stroke:none"
       inkscape:connector-curvature="0" />
    <path
       d="m 14.460309,698.96492 c 0.0499,0.85013 0.249505,1.95031 0.0499,2.35038 -0.199604,0.40008 1.297427,0 1.297427,0 0,0 0.44911,1.10018 0.898221,1.45023 0.449109,0.35008 0.748514,0.5001 1.447132,0.5501 0.698613,0.0502 2.145742,0 2.744557,-0.05 0.598813,-0.0502 0.99802,0 1.297427,-0.50007 0.299409,-0.50009 0.748518,-1.40025 1.047923,-2.30039 0.29941,-0.90015 0.0499,-8.25136 0.0499,-8.25136 0,0 -4.341395,-3.80062 -5.788526,-3.75063 -1.447133,0.0502 -3.542976,3.00053 -3.542976,3.6006 0,0.60011 0.49901,7.15118 0.49901,7.15118 l 0,-0.25004 z"
       id="path2183"
       style="fill:#000000;fill-opacity:1;fill-rule:evenodd;stroke:#000000;stroke-width:0.50121415;stroke-linecap:butt;stroke-linejoin:miter;stroke-miterlimit:4;stroke-opacity:1"
       inkscape:connector-curvature="0" />
    <path
       d="m 65.863882,710.53988 5.809411,-0.5634 c 0,0 0.936997,-0.1878 1.686594,-1.50242 0.749605,-1.31462 0.749605,-4.88287 0.749605,-4.88287 l -0.749605,-11.26815 c 0,0 -2.6236,-2.62923 -7.683405,-1.87803 -5.059809,0.75122 -7.496014,3.75606 -7.308613,7.51211 0.1874,3.75603 0.374801,7.13649 0.374801,7.13649 0,0 0.374803,2.62923 -0.187401,3.56827 -0.562205,0.93898 4.497604,0 4.497604,0 0,0 0.562202,0.75119 1.686602,1.3146 1.124407,0.5634 1.124407,0.5634 1.124407,0.5634 z"
       id="path2157"
       style="fill:#000000;fill-opacity:1;fill-rule:evenodd;stroke:#000000;stroke-width:0.50121415;stroke-linecap:butt;stroke-linejoin:miter;stroke-miterlimit:4;stroke-opacity:1"
       inkscape:connector-curvature="0" />
    <path
       d="m 67.116778,710.45254 c 2.631161,0.048 4.34378,-2.29045 4.425449,-6.77512 0.04132,-2.27031 -1.151555,-5.2944 -2.006476,-6.78518 0.673205,1.42647 1.171796,3.72242 1.135524,5.71446 -0.08165,4.48467 -2.088274,7.79298 -4.719446,7.74487 -1.307938,-0.024 -2.757888,-1.14169 -3.592918,-2.61292 0.842162,1.79737 3.289488,2.68703 4.757867,2.71389 z"
       id="path2181"
       style="fill:#ffffff;fill-opacity:0.19459456;fill-rule:evenodd;stroke:none"
       inkscape:connector-curvature="0" />
    <path
       d="m 93.411723,688.37917 -3.373205,-14.08518 -3.748007,-17.09004 2.811009,-3.19264 23.05023,2.44144 2.0614,1.31461 c 0,0 3.93542,9.76573 5.24722,14.273 1.31181,4.50725 2.9984,9.95354 3.18581,12.01935 0.1874,2.06582 0.74959,5.44629 0.5622,6.5731 -0.1874,1.12683 -11.80623,2.81704 -11.80623,2.81704 l -15.74162,-2.06583 -2.248807,-3.00485 z"
       id="path2149"
       style="fill:#000000;fill-opacity:1;fill-rule:evenodd;stroke:#000000;stroke-width:0.50121415;stroke-linecap:butt;stroke-linejoin:miter;stroke-miterlimit:4;stroke-opacity:1"
       inkscape:connector-curvature="0" />
    <path
       d="m 91.081363,709.30148 c 0,0 28.859687,-1.60452 29.975087,-2.38703 1.11541,-0.78253 1.83181,-2.50227 1.83181,-2.50227 0,0 -19.03956,1.56983 -23.557049,2.24066 -4.5175,0.67084 -8.249848,2.64864 -8.249848,2.64864 z"
       id="path2145"
       style="fill:#5f0000;fill-opacity:1;fill-rule:evenodd;stroke:#000000;stroke-width:0.50121415;stroke-linecap:butt;stroke-linejoin:miter;stroke-miterlimit:4;stroke-opacity:1"
       inkscape:connector-curvature="0" />
    <path
       d="m 1.7735012,696.11355 c 0,0 0.4513376,-21.48447 0.4513376,-24.1983 0,-2.71383 0.4513364,-4.29691 0.6770036,-5.87996 0.2256672,-1.58308 1.8053438,-2.94 1.8053438,-2.94 L 77.597962,650.2046 c 0,0 3.610686,-0.9046 5.416035,-0.67845 1.805338,0.22616 16.24809,1.35691 16.24809,1.35691 0,0 6.318703,1.13077 8.575383,1.80921 2.25668,0.67849 3.61068,1.13078 4.96472,2.71384 1.354,1.58306 1.80531,2.48769 1.80531,2.48769 0,0 -4.96469,-0.90463 -10.60637,-1.58308 -5.64171,-0.67845 -9.026734,-0.90461 -11.509082,-0.90461 -2.482345,0 -3.385023,0.90461 -4.287691,1.35693 -0.902679,0.4523 -0.902679,2.48765 -0.902679,2.48765 0,0 5.867373,24.42449 6.093045,25.55524 0.225667,1.13077 1.353999,3.61844 2.48235,4.07075 1.128341,0.4523 2.708021,1.13076 3.836352,1.58306 1.128345,0.45231 9.252395,0.67846 12.411745,0.67846 3.15936,0 6.99572,0.22616 8.57539,0 1.57968,-0.22615 2.70801,-1.13076 2.70801,-1.13076 l 0,6.33226 c 0,0 -0.22566,8.36765 -0.677,9.0461 -0.45133,0.67848 -26.177495,2.48768 -27.757174,2.93999 -1.579673,0.45232 -2.708015,0.90462 -4.287697,0.90462 -1.579674,0 -18.730445,-2.71384 -18.730445,-2.71384 l -0.90267,0.9046 c 0,0 0,-4.52303 -0.225665,-7.01071 -0.225667,-2.48768 -1.354009,-4.74921 -3.159357,-6.78458 -1.805338,-2.03538 -4.513357,-1.3569 -4.513357,-1.3569 0,0 -1.354008,0.22612 -2.256678,1.58305 -0.902676,1.35691 -1.57968,3.39229 -1.57968,4.97534 0,1.58309 -0.451332,4.2969 -0.451332,5.20153 0,0.9046 -0.225675,1.13076 -0.225675,1.13076 l -0.676995,-0.67846 c 0,0 -33.624542,-4.52305 -35.429884,-3.84458 -1.805344,0.67845 -1.579676,-0.45231 -1.579676,-0.45231 0,0 0,-2.71384 0,-4.52306 0,-1.80922 -1.128341,-4.52305 -1.579676,-4.97536 -0.451336,-0.45231 -1.579676,-1.35691 -2.256678,-1.13074 -0.677005,0.22613 -1.579677,1.13074 -2.031015,2.48765 -0.451334,1.35693 -0.677005,2.71383 -0.677005,4.07075 0,1.35692 0.225671,3.39229 0.225671,3.39229 l -0.902676,-0.9046 c 0,0 -3.610686,0.4523 -6.3187018,-0.4523 -2.708018,-0.90462 -5.641703,-2.03539 -5.641703,-2.03539 z"
       id="path1358"
       style="fill:#ff6600;fill-opacity:1;fill-rule:evenodd;stroke:#000000;stroke-width:0.25060707;stroke-linecap:butt;stroke-linejoin:miter;stroke-miterlimit:4;stroke-opacity:1"
       inkscape:connector-curvature="0" />
    <path
       d="m 106.9348,701.99351 -0.90266,-4.07073 c 0,0 11.9604,-0.90462 12.86306,-0.45231 0.90268,0.45231 0.22569,4.07074 0.22569,4.07074 l -10.38075,0.90461 10.19396,-1.15224 -0.49023,-3.56965 c -0.69446,-0.0662 -11.80669,-0.3587 -12.03235,0.5459 -0.22568,0.90462 0.52328,3.72368 0.52328,3.72368 z"
       id="path2119"
       style="fill:#000000;fill-opacity:0.51351348;fill-rule:evenodd;stroke:none"
       inkscape:connector-curvature="0" />
    <path
       d="m 111.2225,701.76737 3.385,-4.07075"
       id="path2121"
       style="fill:none;stroke:#000000;stroke-width:0.25060707px;stroke-linecap:butt;stroke-linejoin:miter;stroke-opacity:1"
       inkscape:connector-curvature="0" />
    <path
       d="m 90.461035,699.732 c 0,0 -3.836352,-0.45231 -6.093039,-2.93999 -2.256678,-2.48767 -4.062018,-5.87996 -5.19036,-10.62917 C 78.049291,681.41366 76.920949,673.046 76.920949,673.046 l -73.1164335,3.61845 c 0,0 -0.6770059,-1.80923 -0.6770059,-4.7492 0,-2.93999 0.9026741,-6.10612 0.9026741,-6.10612 L 77.372288,654.9538 c 0,0 3.385022,-0.67845 5.416035,0.67847 2.031012,1.3569 2.708015,3.16613 3.159356,4.52305 0.451329,1.35692 4.062024,17.18758 4.287691,19.90142 0.225665,2.71383 0.451329,3.84459 0.451329,3.84459 L 90.461035,699.732 z"
       id="path2131"
       style="fill:#000000;fill-opacity:1;fill-rule:evenodd;stroke:#000000;stroke-width:0.25060707px;stroke-linecap:butt;stroke-linejoin:miter;stroke-opacity:1"
       inkscape:connector-curvature="0" />
    <path
       d="m 79.85464,689.10284 0.225666,18.09219 10.606393,1.35692 0.225674,-0.67847 -0.225674,-16.50912"
       id="path2133"
       style="fill:none;stroke:#000000;stroke-width:0.45109275;stroke-linecap:butt;stroke-linejoin:miter;stroke-miterlimit:4;stroke-opacity:1"
       inkscape:connector-curvature="0" />
    <path
       d="m 29.982007,700.51083 0,-23.53195 5.416035,-0.31443 0,24.44986"
       id="path2135"
       style="fill:none;stroke:#000000;stroke-width:0.42603207;stroke-linecap:butt;stroke-linejoin:miter;stroke-miterlimit:4;stroke-opacity:1"
       inkscape:connector-curvature="0" />
    <path
       d="m 72.181927,701.99351 c 0,0 0.225665,-4.74919 -1.579675,-7.01071 -1.805346,-2.26152 -1.579682,-3.61844 -3.83636,-4.74922 -2.256678,-1.13074 -3.836352,-0.9046 -3.836352,-0.9046 0,0 5.190362,-1.35691 7.44704,3.3923 2.256685,4.74919 1.805347,9.27223 1.805347,9.27223 z"
       id="path2137"
       style="fill:#ffffff;fill-opacity:0.18918918;fill-rule:evenodd;stroke:none"
       inkscape:connector-curvature="0" />
    <path
       d="m 21.857957,696.11355 c 0,0 0,-3.16613 -0.902672,-4.52305 -0.902671,-1.35692 -2.031012,-3.16613 -2.031012,-3.16613 0,0 2.256679,1.80921 2.708017,3.3923 0.451335,1.58306 0.225667,4.29688 0.225667,4.29688 z"
       id="path2139"
       style="fill:#ffffff;fill-opacity:0.18918918;fill-rule:evenodd;stroke:none"
       inkscape:connector-curvature="0" />
    <path
       d="m 80.531645,650.43076 c 0,0 2.256678,-0.90461 4.28769,0.67845 2.031011,1.58306 3.83636,3.84459 3.83636,3.84459 0,0 -1.805349,0.22616 -1.805349,1.35692 0,1.13076 0.225676,-0.90461 -1.579671,-2.93996 -1.805349,-2.03539 -1.128345,-1.58309 -2.256678,-2.03539 -1.128344,-0.45231 -2.482352,-0.90461 -2.482352,-0.90461 z"
       id="path2141"
       style="fill:#ffffff;fill-opacity:0.18918918;fill-rule:evenodd;stroke:none"
       inkscape:connector-curvature="0" />
    <path
       d="m 96.328411,689.55515 c 0,0 0.677003,0.90459 2.031009,1.13074 1.354005,0.22616 1.80534,0.45231 1.80534,0.45231 0,0 0.45134,2.26153 -0.676999,4.52305 -1.128341,2.26153 -1.354005,14.02147 -1.805354,10.40303 -0.451329,-3.61846 -0.225655,-10.17687 -0.451329,-12.4384 -0.225664,-2.26152 -0.902667,-4.07073 -0.902667,-4.07073 z"
       id="path2143"
       style="fill:#ffffff;fill-opacity:0.18918918;fill-rule:evenodd;stroke:none"
       inkscape:connector-curvature="0" />
    <path
       d="m 79.755412,688.85925 -0.285643,-22.72539 6.919961,-0.57779 0.209148,0.74541 c 0,0 -5.44868,-0.40457 -5.983354,0.55045 -0.534673,0.95501 -0.545589,0.57958 -0.491026,2.45681 0.05456,1.87723 -0.369086,19.55051 -0.369086,19.55051 z"
       id="path2151"
       style="fill:#ffffff;fill-opacity:0.78918918;fill-rule:evenodd;stroke:none"
       inkscape:connector-curvature="0" />
    <path
       d="m 93.599123,698.52053 0.187401,2.44143 c 0,0 1.686603,0.5634 3.185802,0.5634 1.499201,0 5.809414,-0.1878 5.809414,-0.1878 l -0.37479,-3.19263 c 0,0 -2.81102,0 -4.122826,0 -1.311798,0 -2.43619,0 -3.373198,0.18779 -0.937001,0.18781 -1.311803,0.18781 -1.311803,0.18781 z"
       id="path2153"
       style="fill:#ffffff;fill-opacity:1;fill-rule:evenodd;stroke:#000000;stroke-width:0.25060707px;stroke-linecap:butt;stroke-linejoin:miter;stroke-opacity:1"
       inkscape:connector-curvature="0" />
    <path
       d="m 121.33437,697.39371 -0.18739,3.38044 1.6866,-0.56339 0.3748,-3.19265 c 0,0 0,-0.18782 -0.74961,0.18779 -0.74959,0.37561 -1.1244,0.18781 -1.1244,0.18781 z"
       id="path2155"
       style="fill:#ffffff;fill-opacity:1;fill-rule:evenodd;stroke:#000000;stroke-width:0.25060707px;stroke-linecap:butt;stroke-linejoin:miter;stroke-opacity:1"
       inkscape:connector-curvature="0" />
    <path
       d="m 68.590677,702.37699 a 2.9141193,5.0626416 0 0 1 -5.828237,0 2.9141193,5.0626416 0 1 1 5.828237,0 z"
       id="path2163"
       style="fill:url(#radialGradient2469);fill-opacity:1;fill-rule:evenodd;stroke:#ffffff;stroke-width:0.24668838;stroke-linecap:round;stroke-linejoin:round;stroke-miterlimit:4;stroke-opacity:0.3837838;stroke-dashoffset:0"
       inkscape:connector-curvature="0" />
    <path
       d="m 65.737566,694.21025 c -2.631611,0 -4.764259,3.64455 -4.764259,8.12997 0,2.27066 0.549695,4.31091 1.43162,5.78581 -0.699061,-1.4139 -1.23937,-3.70036 -1.23937,-5.69272 0,-4.48542 1.946067,-7.82986 4.577669,-7.82986 1.308148,0 2.778218,1.09106 3.639889,2.54678 -0.874748,-1.78168 -2.176935,-2.93998 -3.645549,-2.93998 z"
       id="path2175"
       style="fill:#ffffff;fill-opacity:0.40540538;fill-rule:evenodd;stroke:none"
       inkscape:connector-curvature="0" />
    <path
       d="m 19.550211,696.83789 a 1.6467355,3.5755863 0 0 1 -3.293471,0 1.6467355,3.5755863 0 1 1 3.293471,0 z"
       id="path2185"
       style="fill:url(#radialGradient2479);fill-opacity:1;fill-rule:evenodd;stroke:#ffffff;stroke-width:0.12530354;stroke-linecap:round;stroke-linejoin:round;stroke-miterlimit:4;stroke-opacity:0.40540538;stroke-dashoffset:0"
       inkscape:connector-curvature="0" />
    <path
       d="m 17.831534,690.61703 c -1.556314,0 -2.824132,2.66551 -2.824132,5.95044 0,0.98854 0.149694,1.87625 0.35204,2.69692 -0.113124,-0.64395 -0.1036,-2.26968 -0.1036,-2.99637 3e-6,-3.28492 1.118114,-5.15816 2.674431,-5.15816 1.0865,0 2.051307,1.49352 2.521992,3.39571 -0.399278,-2.26275 -1.410131,-3.88856 -2.620731,-3.88854 z"
       id="path2199"
       style="opacity:0.37172774;fill:#ffffff;fill-opacity:0.62702703;fill-rule:evenodd;stroke:none"
       inkscape:connector-curvature="0" />
    <path
       d="m 106.62605,657.35153 7.09956,1.13836 c 0,0 2.83984,5.97645 3.12383,7.39941 0.28398,1.42297 2.27185,6.83023 2.27185,6.83023 0,0 -5.11168,-11.66832 -5.67965,-12.52209 -0.56797,-0.85377 -6.81559,-2.84591 -6.81559,-2.84591 z"
       id="path2295"
       style="fill:#ffffff;fill-opacity:0.4162162;fill-rule:evenodd;stroke:#000000;stroke-width:0.25060707px;stroke-linecap:butt;stroke-linejoin:miter;stroke-opacity:1"
       inkscape:connector-curvature="0" />
    <rect
       height="14.932178"
       id="rect2378"
       rx="1.611187"
       ry="3.4861741"
       style="fill:#ffffff;fill-opacity:0.82702703;fill-rule:evenodd;stroke:none"
       transform="matrix(0.99850175,0.05471976,0.09314856,0.99565222,0,0)"
       width="5.1659727"
       x="28.832813"
       y="667.66205" />
    <rect
       height="14.673465"
       id="rect2370"
       rx="1.4979442"
       ry="3.4257717"
       style="fill:#000000;fill-opacity:1;fill-rule:evenodd;stroke:none"
       transform="matrix(0.99832452,0.05786329,0.08811284,0.9961105,0,0)"
       width="4.8028789"
       x="32.46608"
       y="667.12683" />
    <path
       d="m 94.298216,666.48351 c 0,0 -0.420295,-0.84239 -1.26088,-1.17935 -1.176824,-0.25271 -3.614518,-0.33694 -3.950747,-0.25271 -0.336238,0.0844 3.614509,-0.42118 4.455094,-0.0844 0.840579,0.33696 0.756533,1.5163 0.756533,1.5163 z"
       id="path2376"
       style="fill:#ffffff;fill-opacity:0.5837838;fill-rule:evenodd;stroke:none"
       inkscape:connector-curvature="0" />
    <path
       d="m 1.9899701,683.63215 -0.2641839,12.4433 6.6045968,2.38275 5.283676,0.26475 c 0,0 -8.7180675,-2.91225 -9.7748018,-3.97124 C 1.4616013,688.92719 4.10344,671.71837 1.9899701,683.63215 z"
       id="path2477"
       style="fill:#000000;fill-opacity:0.21081082;fill-rule:evenodd;stroke:none"
       inkscape:connector-curvature="0" />
  </g>
</svg>
